<svg width="188" height="54" viewBox="0 0 188 54" fill="none" xmlns="http://www.w3.org/2000/svg">
<path d="M186.956 47.7724C186.956 50.6501 184.562 52.9811 181.602 52.9811H6.40497C3.44613 52.9811 1.04443 50.6501 1.04443 47.7724V6.2344C1.04443 3.35803 3.44613 1.01886 6.40497 1.01886H181.601C184.562 1.01886 186.954 3.35803 186.954 6.2344L186.956 47.7724Z" fill="black"/>
<path d="M181.037 1.08169C184.261 1.08169 186.884 3.62475 186.884 6.75V47.25C186.884 50.3753 184.261 52.9183 181.037 52.9183H6.96296C3.73911 52.9183 1.11581 50.3753 1.11581 47.25V6.75C1.11581 3.62475 3.73911 1.08169 6.96296 1.08169H181.037ZM181.037 3.8147e-06H6.96296C3.13507 3.8147e-06 0 3.03919 0 6.75V47.25C0 50.9608 3.13507 54 6.96296 54H181.037C184.865 54 188 50.9608 188 47.25V6.75C188 3.03919 184.865 3.8147e-06 181.037 3.8147e-06Z" fill="#A6A6A6"/>
<path d="M41.956 26.7084C41.9156 22.3573 45.6311 20.2405 45.801 20.142C43.6968 17.1679 40.4353 16.7616 39.2892 16.7292C36.55 16.4497 33.8929 18.3181 32.4975 18.3181C31.0743 18.3181 28.9255 16.7562 26.6097 16.8021C23.6295 16.8466 20.8415 18.5193 19.3125 21.1167C16.1569 26.4127 18.5103 34.1955 21.5337 38.4763C23.046 40.5729 24.8132 42.9138 27.1263 42.8314C29.3893 42.741 30.2346 41.4328 32.9654 41.4328C35.6713 41.4328 36.465 42.8314 38.8241 42.7788C41.2528 42.741 42.7818 40.6728 44.2413 38.5573C45.989 36.1543 46.6908 33.7878 46.7187 33.6663C46.6616 33.6474 42.002 31.9234 41.956 26.7084Z" fill="white"/>
<path d="M37.4997 13.9131C38.7169 12.4375 39.5496 10.4301 39.3185 8.39294C37.5568 8.46854 35.3537 9.57419 34.0851 11.0173C32.9627 12.289 31.96 14.3734 32.219 16.3336C34.1979 16.4767 36.2297 15.3657 37.4997 13.9131Z" fill="white"/>
<path d="M68.3067 13.5121C68.3067 15.1011 67.8151 16.2972 66.8333 17.1004C65.9239 17.8416 64.6316 18.2128 62.9577 18.2128C62.1277 18.2128 61.4175 18.1777 60.8229 18.1075V9.42567C61.5986 9.30416 62.4341 9.24207 63.3365 9.24207C64.931 9.24207 66.1328 9.57822 66.9433 10.2505C67.8513 11.0106 68.3067 12.0973 68.3067 13.5121ZM66.7679 13.5513C66.7679 12.5212 66.4866 11.7315 65.924 11.1807C65.3613 10.6312 64.5397 10.3558 63.4577 10.3558C62.9981 10.3558 62.6068 10.3855 62.2823 10.4476V17.0478C62.462 17.0748 62.7906 17.0869 63.2683 17.0869C64.3851 17.0869 65.2472 16.7859 65.8543 16.1838C66.4615 15.5817 66.7679 14.7042 66.7679 13.5513Z" fill="white"/>
<path d="M76.4659 14.9C76.4659 15.8787 76.1776 16.6806 75.6011 17.3097C74.9967 17.9564 74.196 18.279 73.1961 18.279C72.2324 18.279 71.4651 17.9699 70.8927 17.3489C70.3218 16.7292 70.0363 15.9476 70.0363 15.0053C70.0363 14.0198 70.3301 13.2111 70.9206 12.5834C71.511 11.9556 72.3048 11.6411 73.3047 11.6411C74.2684 11.6411 75.0427 11.9502 75.6289 12.5699C76.186 13.172 76.4659 13.9496 76.4659 14.9ZM74.9521 14.9459C74.9521 14.3586 74.8212 13.8551 74.5608 13.4352C74.2545 12.9276 73.8186 12.6738 73.2518 12.6738C72.6655 12.6738 72.2199 12.9276 71.9135 13.4352C71.6517 13.8551 71.5222 14.3667 71.5222 14.9715C71.5222 15.5588 71.6531 16.0623 71.9135 16.4822C72.2296 16.9898 72.6697 17.2436 73.2379 17.2436C73.7949 17.2436 74.2322 16.9857 74.5469 16.4687C74.8171 16.0407 74.9521 15.5331 74.9521 14.9459Z" fill="white"/>
<path d="M87.4061 11.7706L85.352 18.1345H84.0151L83.1643 15.3711C82.9484 14.6812 82.7729 13.9954 82.6365 13.315H82.61C82.4833 14.0143 82.3078 14.6988 82.0822 15.3711L81.1784 18.1345H79.8262L77.8947 11.7706H79.3945L80.1368 14.796C80.3164 15.5115 80.464 16.1932 80.5824 16.8385H80.6088C80.7175 16.3066 80.8971 15.6289 81.1506 14.8095L82.0822 11.772H83.2715L84.1641 14.7447C84.38 15.4696 84.5554 16.1676 84.6905 16.8399H84.7309C84.8298 16.1851 84.9788 15.4872 85.1765 14.7447L85.9731 11.772H87.4061V11.7706Z" fill="white"/>
<path d="M94.972 18.1346H93.5126V14.4896C93.5126 13.3664 93.0725 12.8048 92.1896 12.8048C91.7565 12.8048 91.407 12.9587 91.1354 13.2678C90.8667 13.577 90.7302 13.9415 90.7302 14.3586V18.1332H89.2707V13.5891C89.2707 13.0302 89.2526 12.4241 89.2178 11.768H90.5004L90.5686 12.7629H90.609C90.7789 12.4538 91.0324 12.1986 91.3652 11.9948C91.7607 11.7572 92.2035 11.637 92.6882 11.637C93.3009 11.637 93.8106 11.8287 94.2158 12.2135C94.72 12.6846 94.972 13.388 94.972 14.3222V18.1346Z" fill="white"/>
<path d="M98.9966 18.1345H97.5386V8.85059H98.9966V18.1345Z" fill="white"/>
<path d="M107.589 14.9C107.589 15.8787 107.301 16.6806 106.724 17.3097C106.12 17.9564 105.318 18.279 104.319 18.279C103.354 18.279 102.587 17.9699 102.016 17.3489C101.445 16.7292 101.159 15.9476 101.159 15.0053C101.159 14.0198 101.453 13.2111 102.044 12.5834C102.634 11.9556 103.428 11.6411 104.426 11.6411C105.391 11.6411 106.164 11.9502 106.752 12.5699C107.309 13.172 107.589 13.9496 107.589 14.9ZM106.074 14.9459C106.074 14.3586 105.943 13.8551 105.682 13.4352C105.377 12.9276 104.94 12.6738 104.375 12.6738C103.787 12.6738 103.342 12.9276 103.037 13.4352C102.775 13.8551 102.645 14.3667 102.645 14.9715C102.645 15.5588 102.776 16.0623 103.037 16.4822C103.353 16.9898 103.793 17.2436 104.361 17.2436C104.918 17.2436 105.354 16.9857 105.669 16.4687C105.94 16.0407 106.074 15.5331 106.074 14.9459Z" fill="white"/>
<path d="M114.652 18.1346H113.342L113.233 17.4015H113.193C112.744 17.9861 112.105 18.279 111.275 18.279C110.655 18.279 110.154 18.086 109.777 17.7026C109.434 17.3543 109.263 16.9209 109.263 16.4066C109.263 15.629 109.597 15.0363 110.27 14.6259C110.941 14.2155 111.885 14.0144 113.101 14.0238V13.905C113.101 13.0667 112.647 12.6482 111.737 12.6482C111.09 12.6482 110.519 12.8061 110.026 13.1193L109.729 12.1905C110.339 11.8247 111.093 11.6411 111.981 11.6411C113.697 11.6411 114.557 12.5186 114.557 14.2736V16.6172C114.557 17.253 114.589 17.7593 114.652 18.1346ZM113.137 15.9476V14.9661C111.527 14.9391 110.722 15.3671 110.722 16.2486C110.722 16.5807 110.814 16.8291 111.002 16.9952C111.19 17.1612 111.43 17.2436 111.715 17.2436C112.035 17.2436 112.335 17.145 112.608 16.9493C112.882 16.7522 113.051 16.5024 113.113 16.196C113.129 16.1271 113.137 16.0434 113.137 15.9476Z" fill="white"/>
<path d="M122.945 18.1345H121.65L121.582 17.1126H121.541C121.128 17.8902 120.423 18.279 119.433 18.279C118.642 18.279 117.983 17.9779 117.461 17.3758C116.939 16.7737 116.678 15.9921 116.678 15.0322C116.678 14.0022 116.961 13.1679 117.529 12.5307C118.079 11.9367 118.753 11.6397 119.555 11.6397C120.437 11.6397 121.054 11.9272 121.405 12.5037H121.433V8.85059H122.894V16.42C122.894 17.0397 122.91 17.6107 122.945 18.1345ZM121.433 15.4507V14.3896C121.433 14.206 121.419 14.0575 121.392 13.9441C121.31 13.6039 121.133 13.3177 120.865 13.0869C120.593 12.856 120.266 12.7399 119.888 12.7399C119.344 12.7399 118.918 12.9492 118.604 13.369C118.294 13.7889 118.136 14.3248 118.136 14.9796C118.136 15.6087 118.285 16.119 118.585 16.5118C118.901 16.9303 119.327 17.1396 119.86 17.1396C120.34 17.1396 120.722 16.9654 121.014 16.6158C121.295 16.2931 121.433 15.9043 121.433 15.4507Z" fill="white"/>
<path d="M135.427 14.9C135.427 15.8787 135.139 16.6806 134.562 17.3097C133.958 17.9564 133.158 18.279 132.157 18.279C131.195 18.279 130.427 17.9699 129.854 17.3489C129.283 16.7292 128.997 15.9476 128.997 15.0053C128.997 14.0198 129.291 13.2111 129.882 12.5834C130.472 11.9556 131.266 11.6411 132.267 11.6411C133.229 11.6411 134.005 11.9502 134.59 12.5699C135.147 13.172 135.427 13.9496 135.427 14.9ZM133.914 14.9459C133.914 14.3586 133.784 13.8551 133.523 13.4352C133.215 12.9276 132.781 12.6738 132.213 12.6738C131.628 12.6738 131.182 12.9276 130.874 13.4352C130.613 13.8551 130.483 14.3667 130.483 14.9715C130.483 15.5588 130.614 16.0623 130.874 16.4822C131.191 16.9898 131.631 17.2436 132.199 17.2436C132.756 17.2436 133.195 16.9857 133.509 16.4687C133.778 16.0407 133.914 15.5331 133.914 14.9459Z" fill="white"/>
<path d="M143.274 18.1346H141.816V14.4896C141.816 13.3664 141.376 12.8048 140.492 12.8048C140.059 12.8048 139.709 12.9587 139.439 13.2678C139.169 13.577 139.034 13.9415 139.034 14.3586V18.1332H137.573V13.5891C137.573 13.0302 137.556 12.4241 137.521 11.768H138.802L138.871 12.7629H138.911C139.082 12.4538 139.336 12.1986 139.667 11.9948C140.064 11.7572 140.506 11.637 140.992 11.637C141.603 11.637 142.113 11.8287 142.518 12.2135C143.023 12.6846 143.274 13.388 143.274 14.3222V18.1346Z" fill="white"/>
<path d="M153.096 12.8304H151.489V15.9219C151.489 16.7076 151.775 17.1004 152.34 17.1004C152.602 17.1004 152.819 17.0788 152.99 17.0343L153.028 18.1075C152.74 18.2128 152.361 18.2655 151.894 18.2655C151.318 18.2655 150.869 18.0954 150.545 17.7552C150.219 17.415 150.057 16.8426 150.057 16.0393V12.8304H149.098V11.7706H150.057V10.6042L151.488 10.1857V11.7693H153.095V12.8304H153.096Z" fill="white"/>
<path d="M160.822 18.1345H159.361V14.5165C159.361 13.3758 158.921 12.8047 158.04 12.8047C157.363 12.8047 156.901 13.1355 156.647 13.797C156.604 13.936 156.579 14.1061 156.579 14.3059V18.1332H155.121V8.85059H156.579V12.6859H156.607C157.066 11.988 157.725 11.6397 158.579 11.6397C159.183 11.6397 159.683 11.8314 160.08 12.2161C160.574 12.6954 160.822 13.4082 160.822 14.3505V18.1345Z" fill="white"/>
<path d="M168.792 14.6516C168.792 14.9054 168.772 15.1187 168.738 15.2928H164.361C164.38 15.9219 164.589 16.4012 164.994 16.7333C165.365 17.0303 165.842 17.1788 166.427 17.1788C167.075 17.1788 167.665 17.0789 168.197 16.8777L168.426 17.8605C167.803 18.1224 167.071 18.2534 166.223 18.2534C165.206 18.2534 164.405 17.9631 163.826 17.3826C163.244 16.8021 162.956 16.0232 162.956 15.0458C162.956 14.0859 163.224 13.2867 163.766 12.6495C164.332 11.9691 165.096 11.6289 166.061 11.6289C167.005 11.6289 167.722 11.9691 168.207 12.6495C168.598 13.1895 168.792 13.8578 168.792 14.6516ZM167.399 14.2857C167.411 13.8659 167.314 13.5041 167.117 13.199C166.863 12.8061 166.477 12.609 165.955 12.609C165.479 12.609 165.09 12.8007 164.794 13.1855C164.552 13.4919 164.408 13.8578 164.361 14.2857H167.399Z" fill="white"/>
<path d="M74.7056 42.5304H71.543L69.8107 37.2532H63.7891L62.1389 42.5304H59.0598L65.0257 24.5646H68.7105L74.7056 42.5304ZM69.2884 35.0392L67.7218 30.348C67.5561 29.8687 67.2455 28.7401 66.7873 26.9635H66.7316C66.5492 27.7276 66.2554 28.8562 65.8515 30.348L64.3127 35.0392H69.2884Z" fill="white"/>
<path d="M90.0478 35.8938C90.0478 38.097 89.4337 39.8385 88.2054 41.1169C87.1053 42.255 85.7391 42.8233 84.1084 42.8233C82.3482 42.8233 81.0837 42.2104 80.3136 40.9846H80.2579V47.8089H77.2889V33.8404C77.2889 32.4553 77.2513 31.0338 77.1789 29.5758H79.79L79.9557 31.6291H80.0114C81.0015 30.082 82.5041 29.3098 84.5206 29.3098C86.097 29.3098 87.413 29.9133 88.4658 31.1215C89.5214 32.3311 90.0478 33.9214 90.0478 35.8938ZM87.0231 35.9991C87.0231 34.7382 86.7307 33.6987 86.143 32.8806C85.501 32.0274 84.639 31.6008 83.5583 31.6008C82.8258 31.6008 82.1602 31.8384 81.5655 32.3068C80.9695 32.7793 80.5796 33.3963 80.3971 34.1604C80.3052 34.5168 80.2593 34.8084 80.2593 35.0379V37.1979C80.2593 38.1402 80.5573 38.9353 81.1533 39.5847C81.7494 40.234 82.5236 40.558 83.4762 40.558C84.5944 40.558 85.4648 40.1395 86.0873 39.3052C86.7112 38.4696 87.0231 37.368 87.0231 35.9991Z" fill="white"/>
<path d="M105.418 35.8938C105.418 38.097 104.804 39.8385 103.574 41.1169C102.475 42.255 101.109 42.8233 99.4785 42.8233C97.7182 42.8233 96.4538 42.2104 95.685 40.9846H95.6293V47.8089H92.6603V33.8404C92.6603 32.4553 92.6227 31.0338 92.5503 29.5758H95.1614L95.3272 31.6291H95.3829C96.3716 30.082 97.8742 29.3098 99.8921 29.3098C101.467 29.3098 102.783 29.9133 103.839 31.1215C104.89 32.3311 105.418 33.9214 105.418 35.8938ZM102.393 35.9991C102.393 34.7382 102.099 33.6987 101.512 32.8806C100.87 32.0274 100.01 31.6008 98.9284 31.6008C98.1945 31.6008 97.5302 31.8384 96.9342 32.3068C96.3382 32.7793 95.9496 33.3963 95.7672 34.1604C95.6767 34.5168 95.6293 34.8084 95.6293 35.0379V37.1979C95.6293 38.1402 95.9274 38.9353 96.5206 39.5847C97.1166 40.2327 97.8909 40.558 98.8462 40.558C99.9645 40.558 100.835 40.1395 101.457 39.3052C102.081 38.4696 102.393 37.368 102.393 35.9991Z" fill="white"/>
<path d="M122.602 37.4922C122.602 39.0204 122.055 40.2637 120.956 41.2236C119.749 42.2725 118.068 42.7963 115.908 42.7963C113.914 42.7963 112.315 42.4237 111.105 41.6772L111.793 39.2782C113.097 40.0423 114.527 40.4257 116.085 40.4257C117.203 40.4257 118.074 40.18 118.699 39.6913C119.322 39.2026 119.632 38.5465 119.632 37.7284C119.632 36.9994 119.376 36.3852 118.862 35.887C118.351 35.3889 117.497 34.9258 116.305 34.4979C113.06 33.3247 111.439 31.6062 111.439 29.3463C111.439 27.8694 112.008 26.6584 113.145 25.7161C114.279 24.7725 115.791 24.3013 117.682 24.3013C119.369 24.3013 120.77 24.5862 121.888 25.1545L121.146 27.5008C120.101 26.95 118.92 26.6746 117.599 26.6746C116.554 26.6746 115.738 26.9244 115.153 27.4212C114.659 27.8653 114.411 28.4067 114.411 29.0479C114.411 29.758 114.694 30.3453 115.262 30.807C115.756 31.2336 116.655 31.6953 117.958 32.1934C119.553 32.8158 120.724 33.5434 121.477 34.3777C122.228 35.2093 122.602 36.2502 122.602 37.4922Z" fill="white"/>
<path d="M132.419 31.7357H129.146V38.0254C129.146 39.6252 129.723 40.4244 130.879 40.4244C131.409 40.4244 131.849 40.3798 132.197 40.2907L132.28 42.4764C131.695 42.6883 130.925 42.795 129.971 42.795C128.798 42.795 127.882 42.448 127.22 41.7555C126.562 41.0616 126.23 39.8979 126.23 38.263V31.7331H124.281V29.5731H126.23V27.2011L129.146 26.3479V29.5731H132.419V31.7357Z" fill="white"/>
<path d="M147.184 35.9464C147.184 37.9377 146.597 39.5725 145.424 40.851C144.195 42.1672 142.562 42.8233 140.528 42.8233C138.567 42.8233 137.006 42.1929 135.842 40.932C134.678 39.6711 134.096 38.0794 134.096 36.1611C134.096 34.1536 134.694 32.5093 135.896 31.2309C137.095 29.9511 138.713 29.3112 140.748 29.3112C142.709 29.3112 144.287 29.9416 145.477 31.2039C146.616 32.4283 147.184 34.0092 147.184 35.9464ZM144.104 36.0396C144.104 34.8448 143.841 33.8202 143.308 32.9656C142.685 31.9315 141.795 31.4158 140.642 31.4158C139.449 31.4158 138.542 31.9329 137.92 32.9656C137.386 33.8215 137.123 34.8624 137.123 36.0936C137.123 37.2883 137.386 38.313 137.92 39.1662C138.562 40.2003 139.458 40.716 140.616 40.716C141.749 40.716 142.639 40.1895 143.281 39.1392C143.828 38.2684 144.104 37.233 144.104 36.0396Z" fill="white"/>
<path d="M156.835 32.107C156.541 32.0544 156.228 32.0274 155.899 32.0274C154.855 32.0274 154.047 32.4094 153.479 33.1749C152.985 33.8499 152.737 34.7031 152.737 35.7331V42.5304H149.769L149.797 33.6555C149.797 32.1624 149.759 30.8029 149.686 29.5771H152.272L152.38 32.0557H152.462C152.776 31.2039 153.27 30.5181 153.947 30.0037C154.608 29.5407 155.323 29.3098 156.093 29.3098C156.367 29.3098 156.615 29.3287 156.835 29.3625V32.107Z" fill="white"/>
<path d="M170.114 35.4402C170.114 35.9559 170.079 36.3906 170.005 36.7456H161.098C161.133 38.0254 161.563 39.0042 162.39 39.6792C163.141 40.2826 164.111 40.585 165.304 40.585C166.622 40.585 167.825 40.3812 168.908 39.9721L169.373 41.9701C168.108 42.5047 166.615 42.7707 164.893 42.7707C162.821 42.7707 161.194 42.1794 160.01 40.9981C158.829 39.8169 158.237 38.2306 158.237 36.2407C158.237 34.2873 158.788 32.6605 159.889 31.3632C161.042 29.9781 162.6 29.2855 164.561 29.2855C166.487 29.2855 167.945 29.9781 168.935 31.3632C169.719 32.4634 170.114 33.8242 170.114 35.4402ZM167.282 34.6936C167.302 33.8404 167.108 33.1033 166.706 32.481C166.192 31.6804 165.402 31.2808 164.34 31.2808C163.369 31.2808 162.58 31.671 161.977 32.454C161.482 33.0763 161.188 33.8229 161.098 34.6923H167.282V34.6936Z" fill="white"/>
</svg>
