<svg width="1440" height="849" viewBox="0 0 1440 849" fill="none" xmlns="http://www.w3.org/2000/svg">
<g opacity="0.6" clip-path="url(#clip0_69_413)">
<g opacity="0.47">
<path d="M682.86 96.1148C841.696 136.337 978.399 200.678 1071.02 272.165C1117.33 307.91 1152.6 345.426 1174.11 382.588C1195.61 419.748 1203.35 456.524 1194.67 490.826C1185.98 525.129 1161.67 553.79 1125.07 576.234C1088.46 598.679 1039.59 614.888 981.849 624.283C866.369 643.073 715.52 634.595 556.684 594.372C397.849 554.15 261.145 489.81 168.527 418.323C122.218 382.578 86.9486 345.062 65.4381 307.9C43.9293 270.74 36.1923 233.964 44.8788 199.662C53.5654 165.359 77.8733 136.698 114.476 114.254C151.081 91.8088 199.955 75.6004 257.695 66.2051C373.175 47.4147 524.024 55.8922 682.86 96.1148Z" stroke="url(#paint0_linear_69_413)"/>
<path d="M711.49 -16.9431C942.291 41.5034 1140.94 134.997 1275.54 238.887C1342.84 290.832 1394.1 345.362 1425.38 399.389C1456.65 453.414 1467.91 506.908 1455.27 556.82C1442.63 606.733 1407.27 648.418 1354.05 681.049C1300.83 713.681 1229.79 737.238 1145.88 750.892C978.06 778.199 758.855 765.877 528.054 707.431C297.254 648.985 98.6036 555.491 -35.994 451.601C-103.293 399.656 -154.56 345.126 -185.832 291.098C-217.103 237.073 -228.367 183.579 -215.728 133.667C-203.088 83.7543 -167.722 42.0698 -114.507 9.43935C-61.2888 -23.1928 9.75159 -46.7502 93.6629 -60.4039C261.484 -87.7111 480.689 -75.3895 711.49 -16.9431Z" stroke="url(#paint1_linear_69_413)"/>
<path d="M746.327 -154.513C1064.7 -73.8917 1338.72 55.0747 1524.4 198.392C1617.24 270.051 1687.97 345.283 1731.13 419.833C1774.28 494.381 1789.83 568.216 1772.38 637.123C1754.93 706.031 1706.11 763.564 1632.68 808.589C1559.25 853.616 1461.23 886.116 1345.48 904.951C1113.97 942.622 811.585 925.623 493.217 845.001C174.849 764.38 -99.1795 635.412 -284.858 492.095C-377.698 420.436 -448.431 345.205 -491.582 270.655C-534.732 196.107 -550.287 122.272 -532.837 53.3646C-515.388 -15.5424 -466.566 -73.0758 -393.136 -118.101C-319.704 -163.129 -221.69 -195.629 -105.934 -214.464C125.577 -252.135 427.96 -235.135 746.327 -154.513Z" stroke="url(#paint2_linear_69_413)"/>
</g>
</g>
<defs>
<linearGradient id="paint0_linear_69_413" x1="166" y1="72" x2="1080.76" y2="593.025" gradientUnits="userSpaceOnUse">
<stop stop-color="#484848"/>
<stop offset="0.491388" stop-color="#484848" stop-opacity="0.36"/>
<stop offset="1" stop-color="#16130C"/>
</linearGradient>
<linearGradient id="paint1_linear_69_413" x1="-157.657" y1="104.859" x2="1289.55" y2="705.253" gradientUnits="userSpaceOnUse">
<stop stop-color="#484848"/>
<stop offset="0.491388" stop-color="#484848" stop-opacity="0.36"/>
<stop offset="1" stop-color="#16130C"/>
</linearGradient>
<linearGradient id="paint2_linear_69_413" x1="-452.555" y1="13.6755" x2="1543.61" y2="841.813" gradientUnits="userSpaceOnUse">
<stop stop-color="#484848"/>
<stop offset="0.491388" stop-color="#484848" stop-opacity="0.36"/>
<stop offset="1" stop-color="#16130C"/>
</linearGradient>
<clipPath id="clip0_69_413">
<rect width="1440" height="929" fill="white" transform="translate(0 -80)"/>
</clipPath>
</defs>
</svg>
