<svg width="188" height="55" viewBox="0 0 188 55" fill="none" xmlns="http://www.w3.org/2000/svg">
<path d="M181.037 54.3111H6.96296C3.13507 54.3111 0 51.2544 0 47.5222V6.78889C0 3.0567 3.13507 0 6.96296 0H181.037C184.865 0 188 3.0567 188 6.78889V47.5222C188 51.2544 184.865 54.3111 181.037 54.3111Z" fill="black"/>
<path d="M181.037 1.08792C184.261 1.08792 186.884 3.64563 186.884 6.78889V47.5222C186.884 50.6655 184.261 53.2232 181.037 53.2232H6.96296C3.73911 53.2232 1.11581 50.6655 1.11581 47.5222V6.78889C1.11581 3.64563 3.73911 1.08792 6.96296 1.08792H181.037ZM181.037 0H6.96296C3.13507 0 0 3.0567 0 6.78889V47.5222C0 51.2544 3.13507 54.3111 6.96296 54.3111H181.037C184.865 54.3111 188 51.2544 188 47.5222V6.78889C188 3.0567 184.865 0 181.037 0Z" fill="#A6A6A6"/>
<path d="M14.5317 10.2359C14.1226 10.6534 13.8859 11.3034 13.8859 12.1453V42.1725C13.8859 43.0143 14.1226 43.6644 14.5317 44.0819L14.6327 44.1735L31.8904 27.3541V26.9569L14.6327 10.1374L14.5317 10.2359Z" fill="url(#paint0_linear_54_467)"/>
<path d="M37.6365 32.9634L31.8903 27.3541V26.9569L37.6435 21.3476L37.7723 21.4206L44.5856 25.2003C46.53 26.2729 46.53 28.0381 44.5856 29.1175L37.7723 32.8904L37.6365 32.9634Z" fill="url(#paint1_linear_54_467)"/>
<path d="M37.7723 32.8904L31.8904 27.1555L14.5317 44.0819C15.1775 44.7438 16.2307 44.8236 17.4283 44.1617L37.7723 32.8904Z" fill="url(#paint2_linear_54_467)"/>
<path d="M37.7723 21.4206L17.4283 10.1494C16.2307 9.49424 15.1775 9.57401 14.5317 10.2359L31.8904 27.1555L37.7723 21.4206Z" fill="url(#paint3_linear_54_467)"/>
<path d="M66.0332 13.9087C66.0332 15.0425 65.6851 15.9505 64.9992 16.6277C64.2107 17.4305 63.1837 17.8344 61.9251 17.8344C60.7222 17.8344 59.6952 17.4237 58.8527 16.6141C58.0084 15.7926 57.5872 14.7845 57.5872 13.5778C57.5872 12.371 58.0084 11.3629 58.8527 10.5482C59.6952 9.73185 60.7222 9.32112 61.9251 9.32112C62.5239 9.32112 63.0949 9.44163 63.6397 9.66566C64.1828 9.89139 64.625 10.1969 64.9453 10.5737L64.2177 11.2899C63.6589 10.6467 62.8982 10.3293 61.9251 10.3293C61.0478 10.3293 60.2871 10.628 59.6412 11.2305C59.0024 11.8347 58.6821 12.6171 58.6821 13.5778C58.6821 14.5384 59.0024 15.3276 59.6412 15.9318C60.2871 16.5275 61.0478 16.833 61.9251 16.833C62.8564 16.833 63.6397 16.5275 64.2577 15.925C64.665 15.5262 64.8965 14.9763 64.9575 14.2736H61.9251V13.2926H65.9706C66.0193 13.5048 66.0332 13.7101 66.0332 13.9087Z" fill="white" stroke="white" stroke-width="0.16" stroke-miterlimit="10"/>
<path d="M72.4513 10.5075H68.6513V13.0873H72.0771V14.0683H68.6513V16.648H72.4513V17.6477H67.5755V9.50783H72.4513V10.5075Z" fill="white" stroke="white" stroke-width="0.16" stroke-miterlimit="10"/>
<path d="M76.9807 17.6477H75.905V10.5075H73.5741V9.50783H79.3133V10.5075H76.9807V17.6477Z" fill="white" stroke="white" stroke-width="0.16" stroke-miterlimit="10"/>
<path d="M83.4668 17.6477V9.50783H84.5408V17.6477H83.4668Z" fill="white" stroke="white" stroke-width="0.16" stroke-miterlimit="10"/>
<path d="M89.3017 17.6477H88.2346V10.5075H85.8951V9.50783H91.6412V10.5075H89.3017V17.6477Z" fill="white" stroke="white" stroke-width="0.16" stroke-miterlimit="10"/>
<path d="M102.507 16.6005C101.684 17.4237 100.664 17.8344 99.4468 17.8344C98.223 17.8344 97.2029 17.4237 96.3796 16.6005C95.5579 15.7791 95.1489 14.7709 95.1489 13.5778C95.1489 12.3846 95.5579 11.3765 96.3796 10.555C97.2029 9.73185 98.223 9.32112 99.4468 9.32112C100.657 9.32112 101.677 9.73185 102.5 10.5618C103.329 11.39 103.738 12.3914 103.738 13.5778C103.738 14.7709 103.329 15.7791 102.507 16.6005ZM97.1751 15.9182C97.7948 16.5275 98.5485 16.833 99.4468 16.833C100.338 16.833 101.099 16.5275 101.711 15.9182C102.329 15.3089 102.643 14.5265 102.643 13.5778C102.643 12.629 102.329 11.8466 101.711 11.2373C101.099 10.628 100.338 10.3225 99.4468 10.3225C98.5485 10.3225 97.7948 10.628 97.1751 11.2373C96.5571 11.8466 96.2438 12.629 96.2438 13.5778C96.2438 14.5265 96.5571 15.3089 97.1751 15.9182Z" fill="white" stroke="white" stroke-width="0.16" stroke-miterlimit="10"/>
<path d="M105.247 17.6477V9.50783H106.552L110.612 15.8385H110.659L110.612 14.2736V9.50783H111.686V17.6477H110.565L106.314 11.0048H106.267L106.314 12.5764V17.6477H105.247Z" fill="white" stroke="white" stroke-width="0.16" stroke-miterlimit="10"/>
<path d="M94.8843 29.5351C91.6134 29.5351 88.9414 31.9622 88.9414 35.3108C88.9414 38.6322 91.6134 41.0847 94.8843 41.0847C98.1621 41.0847 100.834 38.6322 100.834 35.3108C100.834 31.9622 98.1621 29.5351 94.8843 29.5351ZM94.8843 38.8104C93.0896 38.8104 91.5455 37.3661 91.5455 35.3108C91.5455 33.2283 93.0896 31.8094 94.8843 31.8094C96.679 31.8094 98.23 33.2283 98.23 35.3108C98.23 37.3661 96.679 38.8104 94.8843 38.8104ZM81.9175 29.5351C78.6397 29.5351 75.9746 31.9622 75.9746 35.3108C75.9746 38.6322 78.6397 41.0847 81.9175 41.0847C85.1936 41.0847 87.8604 38.6322 87.8604 35.3108C87.8604 31.9622 85.1936 29.5351 81.9175 29.5351ZM81.9175 38.8104C80.1211 38.8104 78.5718 37.3661 78.5718 35.3108C78.5718 33.2283 80.1211 31.8094 81.9175 31.8094C83.7122 31.8094 85.2562 33.2283 85.2562 35.3108C85.2562 37.3661 83.7122 38.8104 81.9175 38.8104ZM66.4876 31.3053V33.7595H72.4984C72.3225 35.1309 71.8525 36.139 71.1319 36.8417C70.2545 37.6903 68.8881 38.6322 66.4876 38.6322C62.7885 38.6322 59.8919 35.7215 59.8919 32.1149C59.8919 28.5083 62.7885 25.5976 66.4876 25.5976C68.4877 25.5976 69.943 26.3596 71.017 27.3474L72.7908 25.6179C71.2885 24.2194 69.2902 23.1451 66.4876 23.1451C61.4151 23.1451 57.152 27.1692 57.152 32.1149C57.152 37.0606 61.4151 41.0847 66.4876 41.0847C69.2292 41.0847 71.2885 40.209 72.9074 38.566C74.5664 36.9486 75.0834 34.6743 75.0834 32.8379C75.0834 32.2677 75.0346 31.7432 74.9476 31.3053H66.4876ZM129.582 33.2079C129.093 31.9163 127.584 29.5351 124.51 29.5351C121.464 29.5351 118.927 31.8756 118.927 35.3108C118.927 38.5457 121.438 41.0847 124.802 41.0847C127.523 41.0847 129.093 39.4673 129.739 38.5253L127.72 37.2134C127.046 38.174 126.129 38.8104 124.802 38.8104C123.485 38.8104 122.539 38.2215 121.934 37.0606L129.856 33.8647L129.582 33.2079ZM121.505 35.1309C121.438 32.9041 123.279 31.7636 124.599 31.7636C125.633 31.7636 126.51 32.2677 126.802 32.989L121.505 35.1309ZM115.066 40.7334H117.671V23.7612H115.066V40.7334ZM110.802 30.8216H110.715C110.13 30.1461 109.014 29.5351 107.6 29.5351C104.634 29.5351 101.922 32.0742 101.922 35.3294C101.922 38.566 104.634 41.0847 107.6 41.0847C109.014 41.0847 110.13 40.4686 110.715 39.7728H110.802V40.601C110.802 42.8091 109.592 43.9955 107.64 43.9955C106.049 43.9955 105.062 42.8753 104.655 41.9333L102.39 42.8549C103.043 44.3858 104.772 46.2697 107.64 46.2697C110.694 46.2697 113.27 44.5182 113.27 40.2565V29.8864H110.802V30.8216ZM107.823 38.8104C106.028 38.8104 104.526 37.3457 104.526 35.3294C104.526 33.2945 106.028 31.8094 107.823 31.8094C109.592 31.8094 110.986 33.2945 110.986 35.3294C110.986 37.3457 109.592 38.8104 107.823 38.8104ZM141.775 23.7612H135.546V40.7334H138.143V34.3026H141.775C144.659 34.3026 147.488 32.2677 147.488 29.031C147.488 25.7961 144.652 23.7612 141.775 23.7612ZM141.842 31.9418H138.143V26.122H141.842C143.782 26.122 144.889 27.6919 144.889 29.031C144.889 30.3447 143.782 31.9418 141.842 31.9418ZM157.897 29.5029C156.021 29.5029 154.069 30.3108 153.267 32.1013L155.572 33.0433C156.068 32.1013 156.98 31.7958 157.944 31.7958C159.292 31.7958 160.658 32.585 160.679 33.9785V34.1567C160.209 33.8919 159.203 33.4998 157.965 33.4998C155.483 33.4998 152.954 34.8322 152.954 37.3186C152.954 39.5929 154.987 41.0576 157.272 41.0576C159.02 41.0576 159.984 40.2887 160.59 39.3943H160.679V40.7062H163.187V34.1957C163.187 31.1865 160.883 29.5029 157.897 29.5029ZM157.584 38.8037C156.735 38.8037 155.551 38.3929 155.551 37.3661C155.551 36.0525 157.027 35.5484 158.305 35.5484C159.448 35.5484 159.984 35.7945 160.679 36.1186C160.475 37.6903 159.088 38.8037 157.584 38.8037ZM172.326 29.8746L169.341 37.232H169.252L166.166 29.8746H163.365L168.002 40.1563L165.356 45.8777H168.07L175.216 29.8746H172.326ZM148.915 40.7334H151.519V23.7612H148.915V40.7334Z" fill="white"/>
<defs>
<linearGradient id="paint0_linear_54_467" x1="30.3581" y1="42.4852" x2="7.57862" y2="19.1217" gradientUnits="userSpaceOnUse">
<stop stop-color="#00A0FF"/>
<stop offset="0.0066" stop-color="#00A1FF"/>
<stop offset="0.2601" stop-color="#00BEFF"/>
<stop offset="0.5122" stop-color="#00D2FF"/>
<stop offset="0.7604" stop-color="#00DFFF"/>
<stop offset="1" stop-color="#00E3FF"/>
</linearGradient>
<linearGradient id="paint1_linear_54_467" x1="47.1175" y1="27.1536" x2="13.4211" y2="27.1536" gradientUnits="userSpaceOnUse">
<stop stop-color="#FFE000"/>
<stop offset="0.4087" stop-color="#FFBD00"/>
<stop offset="0.7754" stop-color="#FFA500"/>
<stop offset="1" stop-color="#FF9C00"/>
</linearGradient>
<linearGradient id="paint2_linear_54_467" x1="34.5739" y1="24.0379" x2="3.68307" y2="-7.64498" gradientUnits="userSpaceOnUse">
<stop stop-color="#FF3A44"/>
<stop offset="1" stop-color="#C31162"/>
</linearGradient>
<linearGradient id="paint3_linear_54_467" x1="10.1622" y1="54.0719" x2="23.9563" y2="39.9242" gradientUnits="userSpaceOnUse">
<stop stop-color="#32A071"/>
<stop offset="0.0685" stop-color="#2DA771"/>
<stop offset="0.4762" stop-color="#15CF74"/>
<stop offset="0.8009" stop-color="#06E775"/>
<stop offset="1" stop-color="#00F076"/>
</linearGradient>
</defs>
</svg>
