<svg width="95" height="79" viewBox="0 0 95 79" fill="none" xmlns="http://www.w3.org/2000/svg">
<rect width="95" height="79" rx="32" fill="#FFAD00" fill-opacity="0.08"/>
<g clip-path="url(#clip0_69_520)">
<mask id="mask0_69_520" style="mask-type:luminance" maskUnits="userSpaceOnUse" x="21" y="14" width="53" height="53">
<path d="M74 14H21V67H74V14Z" fill="white"/>
<path d="M67.8097 18.8814C68.5016 18.978 69.0466 19.5222 69.1426 20.2142L69.2738 21.1657C71.5144 37.3003 61.1812 52.5142 45.3567 56.3795C44.3307 56.6299 43.2475 56.3256 42.5006 55.5787L32.4436 45.522C31.6967 44.7749 31.3926 43.6919 31.6431 42.6657C35.5084 26.8415 50.722 16.5083 66.8568 18.7487L67.8097 18.8814ZM57.7728 30.2513C55.1855 27.664 50.9908 27.664 48.4035 30.2513C45.8165 32.8385 45.8162 37.0331 48.4035 39.6204C50.9908 42.2075 55.1855 42.2075 57.7728 39.6204C60.3599 37.0334 60.3599 32.8385 57.7728 30.2513Z" fill="black"/>
</mask>
<g mask="url(#mask0_69_520)">
<path d="M30.8943 50.9436C31.2178 50.9185 31.536 51.0377 31.7655 51.2672L37.1678 56.6694C37.4157 56.9174 37.5322 57.2668 37.4826 57.6139C36.8943 61.7325 33.368 64.791 29.2079 64.791H24.0989C23.6071 64.791 23.2083 64.3922 23.2083 63.9004V59.2507C23.2086 54.8999 26.5565 51.2809 30.8943 50.9436ZM52.8525 46.5939C54.3082 44.8612 56.8511 44.5388 58.6926 45.8541C62.3962 48.4999 62.3072 54.0344 58.5199 56.5594L49.5658 62.5288C48.7903 63.0455 47.7634 62.4274 47.8557 61.5001L48.7357 52.6885C48.824 51.8045 49.1778 50.9684 49.7493 50.288L52.8525 46.5939ZM45.8523 27.7001C49.733 23.8193 56.0236 23.8194 59.9046 27.7001C63.7853 31.581 63.7853 37.8714 59.9046 41.7523C56.0236 45.633 49.7332 45.6333 45.8523 41.7523C41.9716 37.8716 41.9716 31.5809 45.8523 27.7001ZM31.4636 29.503C33.9885 25.7159 39.523 25.627 42.1689 29.3305C43.4843 31.1721 43.1621 33.717 41.4292 35.1727L37.7371 38.2738C37.0568 38.8453 36.2188 39.1991 35.3347 39.2874L26.5229 40.1694C25.5958 40.2613 24.9776 39.2326 25.4942 38.4571L31.4636 29.503Z" fill="url(#paint0_linear_69_520)"/>
</g>
<mask id="mask1_69_520" style="mask-type:luminance" maskUnits="userSpaceOnUse" x="31" y="18" width="39" height="39">
<path d="M67.8097 18.8814C68.5016 18.978 69.0466 19.5222 69.1426 20.2142L69.2738 21.1657C71.5144 37.3003 61.1812 52.5142 45.3567 56.3795C44.3307 56.6299 43.2475 56.3256 42.5006 55.5787L32.4436 45.522C31.6967 44.7749 31.3926 43.6919 31.6431 42.6657C35.5084 26.8415 50.722 16.5083 66.8568 18.7487L67.8097 18.8814ZM57.7728 30.2513C55.1855 27.664 50.9908 27.664 48.4035 30.2513C45.8165 32.8385 45.8162 37.0331 48.4035 39.6204C50.9908 42.2075 55.1855 42.2075 57.7728 39.6204C60.3599 37.0334 60.3599 32.8385 57.7728 30.2513Z" fill="white"/>
</mask>
<g mask="url(#mask1_69_520)">
<g filter="url(#filter1_f_69_520)">
<path d="M30.8945 50.9436C31.2181 50.9185 31.5363 51.0377 31.7658 51.2672L37.168 56.6694C37.4159 56.9174 37.5324 57.2668 37.4829 57.6139C36.8945 61.7325 33.3683 64.791 29.2081 64.791H24.0992C23.6074 64.791 23.2085 64.3922 23.2085 63.9004V59.2507C23.2089 54.8999 26.5568 51.2809 30.8945 50.9436ZM52.8527 46.5939C54.3085 44.8612 56.8514 44.5388 58.6929 45.8541C62.3965 48.4999 62.3075 54.0344 58.5202 56.5594L49.5661 62.5288C48.7905 63.0455 47.7636 62.4274 47.8559 61.5001L48.7359 52.6885C48.8243 51.8045 49.1781 50.9684 49.7496 50.288L52.8527 46.5939ZM45.8525 27.7001C49.7332 23.8193 56.0239 23.8194 59.9048 27.7001C63.7855 31.581 63.7855 37.8714 59.9048 41.7523C56.0239 45.633 49.7335 45.6333 45.8525 41.7523C41.9719 37.8716 41.9718 31.5809 45.8525 27.7001ZM31.4639 29.503C33.9887 25.7159 39.5233 25.627 42.1691 29.3305C43.4845 31.1721 43.1623 33.717 41.4294 35.1727L37.7373 38.2738C37.057 38.8453 36.219 39.1991 35.3349 39.2874L26.5232 40.1694C25.596 40.2613 24.9779 39.2326 25.4945 38.4571L31.4639 29.503Z" fill="url(#paint1_linear_69_520)"/>
</g>
</g>
<path d="M67.8097 18.8814C68.5016 18.978 69.0466 19.5222 69.1426 20.2142L69.2738 21.1657C71.5144 37.3003 61.1812 52.5142 45.3567 56.3795C44.3307 56.6299 43.2475 56.3256 42.5006 55.5787L32.4436 45.522C31.6967 44.7749 31.3926 43.6919 31.6431 42.6657C35.5084 26.8415 50.722 16.5083 66.8568 18.7487L67.8097 18.8814ZM57.7728 30.2513C55.1855 27.664 50.9908 27.664 48.4035 30.2513C45.8165 32.8385 45.8162 37.0331 48.4035 39.6204C50.9908 42.2075 55.1855 42.2075 57.7728 39.6204C60.3599 37.0334 60.3599 32.8385 57.7728 30.2513Z" fill="url(#paint2_linear_69_520)"/>
<path d="M31.6439 42.6661C35.5093 26.8418 50.7239 16.5069 66.8584 18.7476L67.8073 18.8814C68.4996 18.9775 69.0437 19.522 69.14 20.2141L69.2739 21.1652C71.5146 37.2997 61.1816 52.5142 45.3576 56.3797L44.9714 56.4466C44.1951 56.532 43.4145 56.3128 42.7955 55.8362L42.5022 55.5774L32.444 45.5213C31.7906 44.8678 31.4755 43.9569 31.5749 43.0521L31.6439 42.6661ZM66.6276 20.3888C51.3353 18.266 36.9163 28.0603 33.2527 43.0585C33.1399 43.5212 33.2764 44.0117 33.615 44.3504L43.6733 54.4063C44.0121 54.7451 44.5021 54.8817 44.965 54.7687C59.9624 51.1048 69.757 36.6875 67.6348 21.3959L67.5098 20.5096L66.6276 20.3888Z" fill="url(#paint3_linear_69_520)"/>
</g>
<defs>
<filter id="filter1_f_69_520" x="19.2085" y="20.7896" width="47.6069" height="48.0015" filterUnits="userSpaceOnUse" color-interpolation-filters="sRGB">
<feFlood flood-opacity="0" result="BackgroundImageFix"/>
<feBlend mode="normal" in="SourceGraphic" in2="BackgroundImageFix" result="shape"/>
<feGaussianBlur stdDeviation="2" result="effect1_foregroundBlur_69_520"/>
</filter>
<linearGradient id="paint0_linear_69_520" x1="43.0126" y1="24.7877" x2="43.0126" y2="64.7917" gradientUnits="userSpaceOnUse">
<stop stop-color="#575757"/>
<stop offset="1" stop-color="#151515"/>
</linearGradient>
<linearGradient id="paint1_linear_69_520" x1="43.0128" y1="24.7877" x2="43.0128" y2="64.7917" gradientUnits="userSpaceOnUse">
<stop stop-color="#575757"/>
<stop offset="1" stop-color="#151515"/>
</linearGradient>
<linearGradient id="paint2_linear_69_520" x1="68.6979" y1="19.3243" x2="37.4721" y2="50.5501" gradientUnits="userSpaceOnUse">
<stop stop-color="#E3E3E5" stop-opacity="0.6"/>
<stop offset="1" stop-color="#C0BFBB" stop-opacity="0.6"/>
</linearGradient>
<linearGradient id="paint3_linear_69_520" x1="50.5673" y1="18.4431" x2="50.5673" y2="42.7083" gradientUnits="userSpaceOnUse">
<stop stop-color="white"/>
<stop offset="1" stop-color="white" stop-opacity="0"/>
</linearGradient>
<clipPath id="clip0_69_520">
<rect width="53" height="53" fill="white" transform="translate(21 14)"/>
</clipPath>
</defs>
</svg>
