<svg width="95" height="79" viewBox="0 0 95 79" fill="none" xmlns="http://www.w3.org/2000/svg">
<rect width="95" height="79" rx="32" fill="#F8A900" fill-opacity="0.08"/>
<g clip-path="url(#clip0_69_538)">
<mask id="mask0_69_538" style="mask-type:luminance" maskUnits="userSpaceOnUse" x="21" y="13" width="53" height="53">
<path d="M74 13H21V66H74V13Z" fill="white"/>
<path d="M56.5534 27.3542C61.5005 27.3542 63.976 27.3532 65.8655 28.316C67.5272 29.1629 68.879 30.5145 69.7259 32.1763C70.6885 34.0658 70.6876 36.5413 70.6876 41.4884V48.5533C70.6876 53.5004 70.6885 55.976 69.7259 57.8654C68.879 59.5272 67.5272 60.8789 65.8655 61.7258C63.976 62.6884 61.5005 62.6875 56.5534 62.6875H49.4885C44.5414 62.6875 42.0659 62.6884 40.1763 61.7258C38.5146 60.8789 37.1629 59.5272 36.3161 57.8654C35.3533 55.976 35.3542 53.5004 35.3542 48.5533V41.4884C35.3542 36.5413 35.3533 34.0658 36.3161 32.1763C37.1629 30.5145 38.5146 29.1629 40.1763 28.316C42.0659 27.3532 44.5414 27.3542 49.4885 27.3542H56.5534ZM64.5197 37.9387C63.6574 37.0762 62.2595 37.0762 61.3971 37.9387L50.8126 48.523L46.853 44.5637L46.685 44.4127C45.8176 43.7053 44.5389 43.7553 43.7305 44.5637C42.868 45.4261 42.868 46.824 43.7305 47.6863L49.2513 53.2071C50.1136 54.0697 51.5115 54.0697 52.3739 53.2071L64.5197 41.0613C65.3823 40.199 65.3823 38.8011 64.5197 37.9387Z" fill="black"/>
</mask>
<g mask="url(#mask0_69_538)">
<path d="M41.4782 16.6588C46.2558 15.3786 48.645 14.7367 50.7191 15.1772C52.5439 15.5651 54.2003 16.5211 55.4485 17.9074C56.8676 19.4834 57.5064 21.8739 58.7868 26.6523L60.6158 33.4779C60.9258 34.6355 61.1979 35.6531 61.4264 36.5596C62.6746 35.9088 64.2513 36.1093 65.2999 37.1569C66.5933 38.4506 66.5933 40.5474 65.2999 41.841L53.154 53.9869C51.8604 55.2805 49.7633 55.2805 48.4699 53.9869L46.3996 51.9166L43.7964 52.6153C39.0189 53.8954 36.6297 54.5374 34.5556 54.0968C32.731 53.7091 31.0744 52.7531 29.8262 51.3667C28.4073 49.7908 27.7683 47.4003 26.4879 42.6217L24.6591 35.7962C23.3789 31.0185 22.737 28.6294 23.1775 26.5553C23.5654 24.7307 24.5215 23.0741 25.9077 21.8259C27.4837 20.407 29.8742 19.7679 34.6526 18.4875L41.4782 16.6588Z" fill="url(#paint0_linear_69_538)"/>
</g>
<mask id="mask1_69_538" style="mask-type:luminance" maskUnits="userSpaceOnUse" x="35" y="27" width="36" height="36">
<path d="M56.5534 27.3542C61.5005 27.3542 63.976 27.3532 65.8655 28.316C67.5272 29.1629 68.879 30.5145 69.7259 32.1763C70.6885 34.0658 70.6876 36.5413 70.6876 41.4884V48.5533C70.6876 53.5004 70.6885 55.976 69.7259 57.8654C68.879 59.5272 67.5272 60.8789 65.8655 61.7258C63.976 62.6884 61.5005 62.6875 56.5534 62.6875H49.4885C44.5414 62.6875 42.0659 62.6884 40.1763 61.7258C38.5146 60.8789 37.1629 59.5272 36.3161 57.8654C35.3533 55.976 35.3542 53.5004 35.3542 48.5533V41.4884C35.3542 36.5413 35.3533 34.0658 36.3161 32.1763C37.1629 30.5145 38.5146 29.1629 40.1763 28.316C42.0659 27.3532 44.5414 27.3542 49.4885 27.3542H56.5534ZM64.5197 37.9387C63.6574 37.0762 62.2595 37.0762 61.3971 37.9387L50.8126 48.523L46.853 44.5637L46.685 44.4127C45.8176 43.7053 44.5389 43.7553 43.7305 44.5637C42.868 45.4261 42.868 46.824 43.7305 47.6863L49.2513 53.2071C50.1136 54.0697 51.5115 54.0697 52.3739 53.2071L64.5197 41.0613C65.3823 40.199 65.3823 38.8011 64.5197 37.9387Z" fill="white"/>
</mask>
<g mask="url(#mask1_69_538)">
<g filter="url(#filter1_f_69_538)">
<path d="M41.4782 16.6588C46.2558 15.3787 48.645 14.7368 50.7191 15.1773C52.5439 15.5651 54.2003 16.5212 55.4485 17.9075C56.8676 19.4835 57.5064 21.8739 58.7868 26.6524L60.6158 33.478C60.9258 34.6355 61.1979 35.6531 61.4264 36.5596C62.6746 35.9089 64.2513 36.1094 65.2999 37.157C66.5933 38.4506 66.5933 40.5475 65.2999 41.8411L53.154 53.9869C51.8604 55.2806 49.7633 55.2806 48.4699 53.9869L46.3996 51.9166L43.7964 52.6153C39.0189 53.8955 36.6297 54.5375 34.5556 54.0969C32.731 53.7091 31.0744 52.7531 29.8262 51.3667C28.4073 49.7909 27.7683 47.4004 26.4879 42.6217L24.6591 35.7962C23.3789 31.0186 22.737 28.6295 23.1775 26.5553C23.5654 24.7307 24.5215 23.0742 25.9077 21.826C27.4837 20.4071 29.8742 19.768 34.6526 18.4876L41.4782 16.6588Z" fill="url(#paint1_linear_69_538)"/>
</g>
</g>
<path d="M56.5534 27.3542C61.5005 27.3542 63.976 27.3532 65.8655 28.316C67.5272 29.1629 68.879 30.5145 69.7259 32.1763C70.6885 34.0658 70.6876 36.5413 70.6876 41.4884V48.5533C70.6876 53.5004 70.6885 55.976 69.7259 57.8654C68.879 59.5272 67.5272 60.8789 65.8655 61.7258C63.976 62.6884 61.5005 62.6875 56.5534 62.6875H49.4885C44.5414 62.6875 42.0659 62.6884 40.1763 61.7258C38.5146 60.8789 37.1629 59.5272 36.3161 57.8654C35.3533 55.976 35.3542 53.5004 35.3542 48.5533V41.4884C35.3542 36.5413 35.3533 34.0658 36.3161 32.1763C37.1629 30.5145 38.5146 29.1629 40.1763 28.316C42.0659 27.3532 44.5414 27.3542 49.4885 27.3542H56.5534ZM64.5197 37.9387C63.6574 37.0762 62.2595 37.0762 61.3971 37.9387L50.8126 48.523L46.853 44.5637L46.685 44.4127C45.8176 43.7053 44.5389 43.7553 43.7305 44.5637C42.868 45.4261 42.868 46.824 43.7305 47.6863L49.2513 53.2071C50.1136 54.0697 51.5115 54.0697 52.3739 53.2071L64.5197 41.0613C65.3823 40.199 65.3823 38.8011 64.5197 37.9387Z" fill="url(#paint2_linear_69_538)"/>
<path d="M56.5534 61.0313V62.6875H49.4885V61.0313H56.5534ZM69.0313 48.5533V41.4884C69.0313 38.9877 69.0307 37.2106 68.9169 35.8209C68.805 34.4504 68.591 33.6013 68.2485 32.9289C67.5604 31.5788 66.463 30.4813 65.1129 29.7933C64.4404 29.4507 63.5913 29.2367 62.2208 29.1247C60.8311 29.0112 59.0541 29.0104 56.5534 29.0104H49.4885C46.9877 29.0104 45.2107 29.0112 43.821 29.1247C42.4504 29.2367 41.6014 29.4507 40.929 29.7933C39.5789 30.4813 38.4814 31.5788 37.7933 32.9289C37.4508 33.6013 37.2368 34.4504 37.1248 35.8209C37.0113 37.2106 37.0105 38.9877 37.0105 41.4884V48.5533C37.0105 51.054 37.0113 52.8311 37.1248 54.2208C37.2368 55.5913 37.4508 56.4404 37.7933 57.1128C38.4814 58.463 39.5789 59.5603 40.929 60.2484C41.6014 60.5909 42.4504 60.8049 43.821 60.9169C45.2107 61.0306 46.9877 61.0313 49.4885 61.0313V62.6875L46.2104 62.6725C43.5787 62.631 41.8929 62.4757 40.5387 61.8938L40.1763 61.7258C38.7222 60.9847 37.5055 59.8571 36.6568 58.4736L36.3161 57.8654C35.3533 55.976 35.3542 53.5004 35.3542 48.5533V41.4884C35.3542 36.5413 35.3533 34.0658 36.3161 32.1763C37.1629 30.5145 38.5146 29.1629 40.1763 28.316C41.5933 27.594 43.3398 27.4144 46.2104 27.3693L49.4885 27.3542H56.5534C61.5005 27.3542 63.976 27.3532 65.8655 28.316C67.5272 29.1629 68.879 30.5145 69.7259 32.1763C70.6885 34.0658 70.6876 36.5413 70.6876 41.4884V48.5533C70.6876 53.5004 70.6885 55.976 69.7259 57.8654L69.3851 58.4736C68.5364 59.8571 67.3197 60.9847 65.8655 61.7258L65.5031 61.8938C63.6562 62.6873 61.1915 62.6875 56.5534 62.6875V61.0313C59.0541 61.0313 60.8311 61.0306 62.2208 60.9169C63.5913 60.8049 64.4404 60.5909 65.1129 60.2484C66.463 59.5603 67.5604 58.463 68.2485 57.1128C68.591 56.4404 68.805 55.5913 68.9169 54.2208C69.0307 52.8311 69.0313 51.054 69.0313 48.5533Z" fill="url(#paint3_linear_69_538)"/>
</g>
<defs>
<filter id="filter1_f_69_538" x="19.0391" y="11.0388" width="51.231" height="47.9183" filterUnits="userSpaceOnUse" color-interpolation-filters="sRGB">
<feFlood flood-opacity="0" result="BackgroundImageFix"/>
<feBlend mode="normal" in="SourceGraphic" in2="BackgroundImageFix" result="shape"/>
<feGaussianBlur stdDeviation="2" result="effect1_foregroundBlur_69_538"/>
</filter>
<linearGradient id="paint0_linear_69_538" x1="44.6535" y1="15.0383" x2="44.6535" y2="54.9583" gradientUnits="userSpaceOnUse">
<stop stop-color="#575757"/>
<stop offset="1" stop-color="#151515"/>
</linearGradient>
<linearGradient id="paint1_linear_69_538" x1="44.6535" y1="15.0383" x2="44.6535" y2="54.9584" gradientUnits="userSpaceOnUse">
<stop stop-color="#575757"/>
<stop offset="1" stop-color="#151515"/>
</linearGradient>
<linearGradient id="paint2_linear_69_538" x1="53.0209" y1="27.3542" x2="53.0209" y2="62.6875" gradientUnits="userSpaceOnUse">
<stop stop-color="#E3E3E5" stop-opacity="0.6"/>
<stop offset="1" stop-color="#C0BFBB" stop-opacity="0.6"/>
</linearGradient>
<linearGradient id="paint3_linear_69_538" x1="53.0209" y1="27.3542" x2="53.0209" y2="47.8166" gradientUnits="userSpaceOnUse">
<stop stop-color="white"/>
<stop offset="1" stop-color="white" stop-opacity="0"/>
</linearGradient>
<clipPath id="clip0_69_538">
<rect width="53" height="53" fill="white" transform="translate(21 13)"/>
</clipPath>
</defs>
</svg>
