<svg width="95" height="79" viewBox="0 0 95 79" fill="none" xmlns="http://www.w3.org/2000/svg">
<rect width="95" height="79" rx="32" fill="#F8A900" fill-opacity="0.08"/>
<g clip-path="url(#clip0_69_556)">
<mask id="mask0_69_556" style="mask-type:luminance" maskUnits="userSpaceOnUse" x="21" y="13" width="53" height="53">
<path d="M74 13H21V66H74V13Z" fill="white"/>
<path d="M25.4167 44.8V47.45C25.4167 52.3971 25.4167 54.8707 26.3795 56.7604C27.2264 58.4223 28.5777 59.7736 30.2398 60.6205C32.1294 61.5834 34.603 61.5834 39.5501 61.5834H55.4501C60.3972 61.5834 62.8707 61.5834 64.7604 60.6205C66.4224 59.7736 67.7737 58.4223 68.6206 56.7604C69.5834 54.8707 69.5834 52.3971 69.5834 47.45V44.8C69.5834 39.8529 69.5834 37.3794 68.6206 35.4897C67.7737 33.8277 66.4224 32.4764 64.7604 31.6295C62.8707 30.6667 60.3972 30.6667 55.4501 30.6667H39.5501C34.603 30.6667 32.1294 30.6667 30.2398 31.6295C28.5777 32.4764 27.2264 33.8277 26.3795 35.4897C25.4167 37.3794 25.4167 39.8529 25.4167 44.8Z" fill="black"/>
</mask>
<g mask="url(#mask0_69_556)">
<path d="M56.3333 39.5V26.25C56.3333 21.3715 52.3784 17.4167 47.5 17.4167C42.6215 17.4167 38.6667 21.3715 38.6667 26.25V39.5C38.6667 40.7197 37.678 41.7083 36.4583 41.7083C35.2387 41.7083 34.25 40.7197 34.25 39.5V26.25C34.25 18.9322 40.1822 13 47.5 13C54.8178 13 60.75 18.9322 60.75 26.25V39.5C60.75 40.7197 59.7613 41.7083 58.5417 41.7083C57.322 41.7083 56.3333 40.7197 56.3333 39.5Z" fill="url(#paint0_linear_69_556)"/>
</g>
<mask id="mask1_69_556" style="mask-type:luminance" maskUnits="userSpaceOnUse" x="25" y="30" width="45" height="32">
<path d="M25.4167 44.8V47.45C25.4167 52.3971 25.4167 54.8707 26.3795 56.7604C27.2264 58.4223 28.5777 59.7736 30.2398 60.6205C32.1294 61.5834 34.603 61.5834 39.5501 61.5834H55.4501C60.3972 61.5834 62.8707 61.5834 64.7604 60.6205C66.4224 59.7736 67.7737 58.4223 68.6206 56.7604C69.5834 54.8707 69.5834 52.3971 69.5834 47.45V44.8C69.5834 39.8529 69.5834 37.3794 68.6206 35.4897C67.7737 33.8277 66.4224 32.4764 64.7604 31.6295C62.8707 30.6667 60.3972 30.6667 55.4501 30.6667H39.5501C34.603 30.6667 32.1294 30.6667 30.2398 31.6295C28.5777 32.4764 27.2264 33.8277 26.3795 35.4897C25.4167 37.3794 25.4167 39.8529 25.4167 44.8Z" fill="white"/>
</mask>
<g mask="url(#mask1_69_556)">
<g filter="url(#filter1_f_69_556)">
<path d="M56.3333 39.5V26.25C56.3333 21.3715 52.3784 17.4167 47.5 17.4167C42.6215 17.4167 38.6667 21.3715 38.6667 26.25V39.5C38.6667 40.7197 37.678 41.7083 36.4583 41.7083C35.2387 41.7083 34.25 40.7197 34.25 39.5V26.25C34.25 18.9322 40.1822 13 47.5 13C54.8178 13 60.75 18.9322 60.75 26.25V39.5C60.75 40.7197 59.7613 41.7083 58.5417 41.7083C57.322 41.7083 56.3333 40.7197 56.3333 39.5Z" fill="url(#paint1_linear_69_556)"/>
</g>
</g>
<path d="M25.4167 44.8V47.45C25.4167 52.3971 25.4167 54.8707 26.3795 56.7604C27.2264 58.4223 28.5777 59.7736 30.2398 60.6205C32.1294 61.5834 34.603 61.5834 39.5501 61.5834H55.4501C60.3972 61.5834 62.8707 61.5834 64.7604 60.6205C66.4224 59.7736 67.7737 58.4223 68.6206 56.7604C69.5834 54.8707 69.5834 52.3971 69.5834 47.45V44.8C69.5834 39.8529 69.5834 37.3794 68.6206 35.4897C67.7737 33.8277 66.4224 32.4764 64.7604 31.6295C62.8707 30.6667 60.3972 30.6667 55.4501 30.6667H39.5501C34.603 30.6667 32.1294 30.6667 30.2398 31.6295C28.5777 32.4764 27.2264 33.8277 26.3795 35.4897C25.4167 37.3794 25.4167 39.8529 25.4167 44.8Z" fill="url(#paint2_linear_69_556)"/>
<path d="M55.4492 59.9271V61.5834H39.5509V59.9271H55.4492ZM67.9272 47.4491V44.8009C67.9272 42.3002 67.9265 40.5231 67.8128 39.1334C67.7008 37.7629 67.4868 36.9138 67.1443 36.2414C66.4562 34.8913 65.3589 33.7938 64.0087 33.1058C63.3363 32.7632 62.4872 32.5492 61.1167 32.4372C59.727 32.3237 57.9499 32.3229 55.4492 32.3229H39.5509C37.0502 32.3229 35.2733 32.3237 33.8835 32.4372C32.5129 32.5492 31.6639 32.7632 30.9915 33.1058C29.6414 33.7938 28.5439 34.8913 27.8558 36.2414C27.5133 36.9138 27.2993 37.7629 27.1873 39.1334C27.0738 40.5231 27.073 42.3002 27.073 44.8009V47.4491C27.073 49.9499 27.0738 51.7269 27.1873 53.1166C27.2993 54.4871 27.5133 55.3362 27.8558 56.0086C28.5439 57.3588 29.6414 58.4561 30.9915 59.1442C31.6639 59.4868 32.5129 59.7007 33.8835 59.8127C35.2733 59.9264 37.0502 59.9271 39.5509 59.9271V61.5834L36.273 61.5683C33.6413 61.5268 31.9554 61.3716 30.6012 60.7897L30.2388 60.6216C28.7847 59.8805 27.568 58.7529 26.7193 57.3694L26.3786 56.7612C25.4158 54.8718 25.4167 52.3962 25.4167 47.4491V44.8009C25.4167 39.8538 25.4158 37.3783 26.3786 35.4888C27.2254 33.827 28.5771 32.4754 30.2388 31.6285C31.6558 30.9065 33.4022 30.7269 36.273 30.6818L39.5509 30.6667H55.4492C60.3963 30.6667 62.8719 30.6657 64.7613 31.6285C66.4231 32.4754 67.7748 33.827 68.6217 35.4888C69.5843 37.3783 69.5834 39.8538 69.5834 44.8009V47.4491C69.5834 52.3962 69.5843 54.8718 68.6217 56.7612L68.2809 57.3694C67.4323 58.7529 66.2155 59.8805 64.7613 60.6216L64.3989 60.7897C62.5521 61.5831 60.0874 61.5834 55.4492 61.5834V59.9271C57.9499 59.9271 59.727 59.9264 61.1167 59.8127C62.4872 59.7007 63.3363 59.4868 64.0087 59.1442C65.3589 58.4561 66.4562 57.3588 67.1443 56.0086C67.4868 55.3362 67.7008 54.4871 67.8128 53.1166C67.9265 51.7269 67.9272 49.9499 67.9272 47.4491Z" fill="url(#paint3_linear_69_556)"/>
</g>
<defs>
<filter id="filter1_f_69_556" x="30.25" y="9" width="34.5" height="36.7083" filterUnits="userSpaceOnUse" color-interpolation-filters="sRGB">
<feFlood flood-opacity="0" result="BackgroundImageFix"/>
<feBlend mode="normal" in="SourceGraphic" in2="BackgroundImageFix" result="shape"/>
<feGaussianBlur stdDeviation="2" result="effect1_foregroundBlur_69_556"/>
</filter>
<linearGradient id="paint0_linear_69_556" x1="47.5" y1="13" x2="47.5" y2="41.7083" gradientUnits="userSpaceOnUse">
<stop stop-color="#575757"/>
<stop offset="1" stop-color="#151515"/>
</linearGradient>
<linearGradient id="paint1_linear_69_556" x1="47.5" y1="13" x2="47.5" y2="41.7083" gradientUnits="userSpaceOnUse">
<stop stop-color="#575757"/>
<stop offset="1" stop-color="#151515"/>
</linearGradient>
<linearGradient id="paint2_linear_69_556" x1="47.5001" y1="30.6667" x2="47.5001" y2="61.5834" gradientUnits="userSpaceOnUse">
<stop stop-color="#E3E3E5" stop-opacity="0.6"/>
<stop offset="1" stop-color="#C0BFBB" stop-opacity="0.6"/>
</linearGradient>
<linearGradient id="paint3_linear_69_556" x1="47.5001" y1="30.6667" x2="47.5001" y2="48.5719" gradientUnits="userSpaceOnUse">
<stop stop-color="white"/>
<stop offset="1" stop-color="white" stop-opacity="0"/>
</linearGradient>
<clipPath id="clip0_69_556">
<rect width="53" height="53" fill="white" transform="translate(21 13)"/>
</clipPath>
</defs>
</svg>
