<svg width="95" height="79" viewBox="0 0 95 79" fill="none" xmlns="http://www.w3.org/2000/svg">
<rect width="95" height="79" rx="32" fill="#F8A900" fill-opacity="0.08"/>
<g clip-path="url(#clip0_69_574)">
<mask id="mask0_69_574" style="mask-type:luminance" maskUnits="userSpaceOnUse" x="21" y="13" width="53" height="53">
<path d="M74 13H21V66H74V13Z" fill="white"/>
<path d="M36.0895 37.2917C37.5124 37.2917 38.6666 38.446 38.6666 39.8688V59.0062C38.6666 60.4291 37.5124 61.5834 36.0895 61.5834H35.3541C28.6461 61.5834 23.2083 56.1456 23.2083 49.4375C23.2083 42.7295 28.6461 37.2917 35.3541 37.2917H36.0895ZM59.6458 37.2917C66.3538 37.2917 71.7916 42.7295 71.7916 49.4375C71.7916 56.1456 66.3538 61.5834 59.6458 61.5834H58.9104C57.4875 61.5834 56.3333 60.4291 56.3333 59.0062V39.8688C56.3333 38.446 57.4875 37.2917 58.9104 37.2917H59.6458Z" fill="black"/>
</mask>
<g mask="url(#mask0_69_574)">
<path d="M65.1668 50.5416V37.2916C65.1668 27.5346 57.2572 19.625 47.5001 19.625C37.743 19.625 29.8334 27.5346 29.8334 37.2916V50.5416C29.8334 51.7613 28.8447 52.75 27.6251 52.75C26.4055 52.75 25.4167 51.7613 25.4167 50.5416V37.2916C25.4167 25.0954 35.3038 15.2083 47.5001 15.2083C59.6963 15.2083 69.5834 25.0954 69.5834 37.2916V50.5416C69.5834 51.7613 68.5947 52.75 67.3751 52.75C66.1554 52.75 65.1668 51.7613 65.1668 50.5416Z" fill="url(#paint0_linear_69_574)"/>
</g>
<mask id="mask1_69_574" style="mask-type:luminance" maskUnits="userSpaceOnUse" x="23" y="37" width="49" height="25">
<path d="M36.0895 37.2917C37.5124 37.2917 38.6666 38.446 38.6666 39.8688V59.0062C38.6666 60.4291 37.5124 61.5834 36.0895 61.5834H35.3541C28.6461 61.5834 23.2083 56.1456 23.2083 49.4375C23.2083 42.7295 28.6461 37.2917 35.3541 37.2917H36.0895ZM59.6458 37.2917C66.3538 37.2917 71.7916 42.7295 71.7916 49.4375C71.7916 56.1456 66.3538 61.5834 59.6458 61.5834H58.9104C57.4875 61.5834 56.3333 60.4291 56.3333 59.0062V39.8688C56.3333 38.446 57.4875 37.2917 58.9104 37.2917H59.6458Z" fill="white"/>
</mask>
<g mask="url(#mask1_69_574)">
<g filter="url(#filter1_f_69_574)">
<path d="M65.1665 50.5417V37.2917C65.1665 27.5347 57.2569 19.625 47.4998 19.625C37.7428 19.625 29.8332 27.5347 29.8332 37.2917V50.5417C29.8332 51.7614 28.8445 52.75 27.6248 52.75C26.4052 52.75 25.4165 51.7614 25.4165 50.5417V37.2917C25.4165 25.0954 35.3035 15.2084 47.4998 15.2084C59.696 15.2084 69.5832 25.0954 69.5832 37.2917V50.5417C69.5832 51.7614 68.5945 52.75 67.3748 52.75C66.1552 52.75 65.1665 51.7614 65.1665 50.5417Z" fill="url(#paint1_linear_69_574)"/>
</g>
</g>
<path d="M36.0895 37.2917C37.5124 37.2917 38.6666 38.446 38.6666 39.8688V59.0062C38.6666 60.4291 37.5124 61.5834 36.0895 61.5834H35.3541C28.6461 61.5834 23.2083 56.1456 23.2083 49.4375C23.2083 42.7295 28.6461 37.2917 35.3541 37.2917H36.0895ZM59.6458 37.2917C66.3538 37.2917 71.7916 42.7295 71.7916 49.4375C71.7916 56.1456 66.3538 61.5834 59.6458 61.5834H58.9104C57.4875 61.5834 56.3333 60.4291 56.3333 59.0062V39.8688C56.3333 38.446 57.4875 37.2917 58.9104 37.2917H59.6458Z" fill="url(#paint2_linear_69_574)"/>
<path d="M36.0895 59.9271V61.5834H35.3541V59.9271H36.0895ZM37.0103 59.0062V39.8688C37.0103 39.3607 36.5977 38.9479 36.0895 38.9479H35.3541C29.5609 38.9479 24.8645 43.6442 24.8645 49.4375C24.8645 55.2309 29.5609 59.9271 35.3541 59.9271V61.5834C28.6461 61.5834 23.2083 56.1456 23.2083 49.4375C23.2083 42.7295 28.6461 37.2917 35.3541 37.2917H36.0895C37.5124 37.2917 38.6666 38.446 38.6666 39.8688V59.0062C38.6666 60.4291 37.5124 61.5834 36.0895 61.5834V59.9271C36.5977 59.9271 37.0103 59.5144 37.0103 59.0062Z" fill="url(#paint3_linear_69_574)"/>
<path d="M58.9104 59.9271V61.5834H59.6458V59.9271H58.9104ZM57.9895 59.0062V39.8688C57.9895 39.3607 58.4022 38.9479 58.9104 38.9479H59.6458C65.4391 38.9479 70.1353 43.6442 70.1353 49.4375C70.1353 55.2309 65.4391 59.9271 59.6458 59.9271V61.5834C66.3538 61.5834 71.7916 56.1456 71.7916 49.4375C71.7916 42.7295 66.3538 37.2917 59.6458 37.2917H58.9104C57.4875 37.2917 56.3333 38.446 56.3333 39.8688V59.0062C56.3333 60.4291 57.4875 61.5834 58.9104 61.5834V59.9271C58.4022 59.9271 57.9895 59.5144 57.9895 59.0062Z" fill="url(#paint4_linear_69_574)"/>
</g>
<defs>
<filter id="filter1_f_69_574" x="21.4165" y="11.2084" width="52.1667" height="45.5417" filterUnits="userSpaceOnUse" color-interpolation-filters="sRGB">
<feFlood flood-opacity="0" result="BackgroundImageFix"/>
<feBlend mode="normal" in="SourceGraphic" in2="BackgroundImageFix" result="shape"/>
<feGaussianBlur stdDeviation="2" result="effect1_foregroundBlur_69_574"/>
</filter>
<linearGradient id="paint0_linear_69_574" x1="47.5001" y1="15.2083" x2="47.5001" y2="52.75" gradientUnits="userSpaceOnUse">
<stop stop-color="#575757"/>
<stop offset="1" stop-color="#151515"/>
</linearGradient>
<linearGradient id="paint1_linear_69_574" x1="47.4998" y1="15.2084" x2="47.4998" y2="52.75" gradientUnits="userSpaceOnUse">
<stop stop-color="#575757"/>
<stop offset="1" stop-color="#151515"/>
</linearGradient>
<linearGradient id="paint2_linear_69_574" x1="47.4999" y1="37.2917" x2="47.4999" y2="61.5834" gradientUnits="userSpaceOnUse">
<stop stop-color="#E3E3E5" stop-opacity="0.6"/>
<stop offset="1" stop-color="#C0BFBB" stop-opacity="0.6"/>
</linearGradient>
<linearGradient id="paint3_linear_69_574" x1="30.9374" y1="37.2917" x2="30.9374" y2="51.3588" gradientUnits="userSpaceOnUse">
<stop stop-color="white"/>
<stop offset="1" stop-color="white" stop-opacity="0"/>
</linearGradient>
<linearGradient id="paint4_linear_69_574" x1="64.0624" y1="37.2917" x2="64.0624" y2="51.3588" gradientUnits="userSpaceOnUse">
<stop stop-color="white"/>
<stop offset="1" stop-color="white" stop-opacity="0"/>
</linearGradient>
<clipPath id="clip0_69_574">
<rect width="53" height="53" fill="white" transform="translate(21 13)"/>
</clipPath>
</defs>
</svg>
