<svg width="106" height="25" viewBox="0 0 106 25" fill="none" xmlns="http://www.w3.org/2000/svg">
<path d="M11.8029 0.000930786V11.4825C11.8029 13.2277 11.4714 14.591 10.8094 15.5726C10.1464 16.5541 8.95613 17.0449 7.23566 17.0449C6.34617 17.0449 5.59039 16.8372 4.96738 16.421C4.34529 16.0038 3.89962 15.5437 3.63315 15.038C3.36668 14.5324 3.16891 13.9522 3.04078 13.2975C2.91172 12.6428 2.84765 12.1865 2.84765 11.9295V11.3046H0C0 16.719 2.4122 19.4252 7.23659 19.4252C8.67945 19.4252 9.89576 19.2073 10.8846 18.7706C11.8725 18.3347 12.6199 17.7247 13.1232 16.9415C13.6273 16.1584 13.9829 15.3305 14.1909 14.4569C14.3989 13.5853 14.5029 12.5935 14.5029 11.4825V0.000930786H11.8038H11.8029Z" fill="#101010"/>
<path d="M27.3437 6.97609C26.3948 5.9545 24.951 5.44416 23.0133 5.44416H22.7756C21.8861 5.46372 21.0858 5.67791 20.3736 6.08394C19.6615 6.4909 19.1174 7.04035 18.7423 7.73414V0.000930786H16.1323V19.1263H18.7423V12.5236C18.7423 10.7393 19.083 9.48399 19.7655 8.7604C20.4479 8.03681 21.4302 7.67454 22.7162 7.67454H22.835C24.0012 7.6941 24.8471 8.007 25.3707 8.61139C25.8944 9.21671 26.1562 10.243 26.1562 11.6902V19.1263H28.7662V11.6902C28.7662 9.56873 28.2917 7.99769 27.3428 6.97609H27.3437Z" fill="#101010"/>
<path d="M33.4226 2.14098V6.65854H33.3901L30.8126 4.07335V2.14098H33.4226Z" fill="#FFAD00"/>
<path d="M33.4226 6.65854H30.8126V19.1263H33.4226V6.65854Z" fill="#101010"/>
<path d="M46.7973 6.9761C45.8484 5.9545 44.4046 5.44417 42.4678 5.44417H42.2301C41.3007 5.46372 40.4707 5.69282 39.739 6.12865C39.0074 6.56448 38.4642 7.15956 38.1086 7.91295V5.74124H35.5878V19.1263H38.1977V12.5236C38.1977 10.7393 38.5394 9.48399 39.2209 8.7604C39.9034 8.03681 40.8866 7.67455 42.1716 7.67455H42.2905C43.4566 7.6941 44.3025 8.00701 44.8262 8.6114C45.3498 9.21672 45.6126 10.243 45.6126 11.6902V19.1263H48.2216V11.6902C48.2216 9.56874 47.7472 7.99769 46.7983 6.9761H46.7973Z" fill="#101010"/>
<path d="M59.4906 14.0323L57.8769 12.2452L57.8592 12.2256L57.862 12.2228L56.2307 10.4087L56.2279 10.4106L55.2846 9.35734L52.0469 5.74124H48.7843L54.7451 12.3746L48.6654 19.1263H51.9281L56.3764 14.1589L60.8248 19.1263H64.0875L59.4906 14.0323Z" fill="#101010"/>
<path d="M60.4396 5.74124L57.877 8.58253V12.2061L63.7013 5.74124H60.4396Z" fill="#101010"/>
<path d="M77.7882 1.59153C76.5617 0.530817 74.7818 0 72.4504 0H64.8285V19.1254H67.5276V11.6892H72.4504C74.7428 11.6892 76.5134 11.1435 77.7585 10.053C79.0046 8.96248 79.6266 7.56465 79.6266 5.85858C79.6266 4.1525 79.0138 2.6513 77.7882 1.59059V1.59153ZM75.6676 8.43353C74.8867 9.07796 73.8143 9.40018 72.4504 9.40018H67.5276V2.29091H72.4504C73.8338 2.29091 74.9109 2.59357 75.6834 3.19796C76.454 3.80328 76.8393 4.69078 76.8393 5.86044C76.8393 6.9314 76.4494 7.79002 75.6676 8.43353Z" fill="#101010"/>
<path d="M92.4684 16.8363C92.1722 16.8363 91.9745 16.7814 91.8751 16.6724C91.7758 16.5635 91.7275 16.3595 91.7275 16.0624V10.5C91.7275 8.95317 91.267 7.7239 90.3487 6.81126C89.4295 5.89955 88.0098 5.44324 86.0925 5.44324C84.9459 5.44324 83.9468 5.59224 83.0972 5.88931C82.2468 6.18638 81.6247 6.51326 81.2291 6.87086C80.8336 7.22753 80.5272 7.64381 80.3099 8.12062C80.0927 8.59743 79.9692 8.9243 79.9395 9.10217C79.9098 9.28097 79.8949 9.42904 79.8949 9.54824H82.7713V9.34057C82.7908 9.20182 82.8605 9.03326 82.9784 8.8349C83.0963 8.63654 83.2597 8.43818 83.4677 8.23982C83.6748 8.04146 84.0062 7.8729 84.4612 7.73414C84.9152 7.59632 85.4491 7.52647 86.0628 7.52647C88.099 7.52647 89.1175 8.55831 89.1175 10.6201C89.0581 10.6201 88.7563 10.649 88.2132 10.7095C87.6691 10.7691 87.2048 10.8185 86.8186 10.8576C86.4333 10.8976 85.9096 10.9815 85.2467 11.1109C84.5837 11.2404 84.0062 11.3782 83.5113 11.5272C83.0174 11.6762 82.4835 11.8792 81.9106 12.1372C81.3368 12.3951 80.867 12.6829 80.5021 12.9995C80.1363 13.3171 79.8346 13.7045 79.5978 14.1599C79.3406 14.6357 79.2115 15.1414 79.2115 15.6769C79.2115 16.7879 79.6266 17.6903 80.4576 18.3841C81.2876 19.0788 82.4742 19.4252 84.0164 19.4252C86.3293 19.4252 88.0591 18.6718 89.2057 17.1641C89.3441 17.898 89.6607 18.4092 90.1546 18.6961C90.6486 18.9838 91.4007 19.1272 92.409 19.1272H93.4164V16.8372H92.4675L92.4684 16.8363ZM89.1175 13.9513C89.1175 14.903 88.5985 15.702 87.5605 16.3455C86.5224 16.99 85.4296 17.3122 84.2829 17.3122C83.6107 17.3122 83.0573 17.1734 82.6219 16.895C82.1873 16.6175 81.9691 16.2114 81.9691 15.675C81.9691 14.9812 82.374 14.3964 83.1855 13.9205C84.2133 13.3255 86.1909 12.8999 89.1166 12.641V13.9503L89.1175 13.9513Z" fill="#101010"/>
<path d="M102.788 5.74124L98.7849 15.7058L94.9595 5.74124H92.1416L97.5686 18.7706L96.4711 21.5066C96.2938 21.8838 96.1591 22.1063 96.0709 22.1762C95.9818 22.2451 95.7487 22.2796 95.3746 22.2796H93.2391V24.5705H95.3746C95.9874 24.5705 96.4915 24.5211 96.8871 24.4215C97.2826 24.3218 97.6289 24.1039 97.9251 23.7668C98.2213 23.4297 98.4339 23.1373 98.563 22.8895C98.6911 22.6409 98.9037 22.1808 99.2009 21.5066L105.606 5.74124H102.788Z" fill="#101010"/>
</svg>
