<svg width="149" height="34" viewBox="0 0 149 34" fill="none" xmlns="http://www.w3.org/2000/svg">
<path d="M12.5979 30.5L14.6804 28.8663C16.0582 27.5936 17.8028 25.4866 17.8028 23.4866V16.0508H20.561C22.3057 16.0508 24.1902 14.0134 24.3592 12.3048C24.6706 9.17112 22.7755 7.46524 19.8352 7.29144C18.0246 7.18449 16.074 7.34225 14.2581 7.34759C14.1816 7.40374 14.1578 8.35562 14.1552 8.50267C14.0285 13.4973 14.559 19.1337 14.1552 24.0107C13.7909 28.4278 8.96081 31.5642 4.79054 30.0214C2.3438 29.115 0 26.1925 0 23.484V20.1631H3.85091V23.2754C3.85091 23.5775 4.09109 24.3824 4.21778 24.6979C5.47678 27.8476 10.1169 27.2513 10.4125 23.385C10.6738 19.9786 10.3993 15.8957 10.4046 12.4091C10.4046 11.4037 10.4046 10.3663 10.4046 9.35829C10.4046 7.40642 10.4204 5.44652 10.4099 3.5H20.7696C23.3483 3.5 26.183 5.72193 27.2203 8.03743C29.4638 13.0428 26.666 18.5936 21.3872 19.6283C21.2156 22.5267 21.8385 25.0562 20.0727 27.5775C19.2097 28.8102 16.9899 30.4973 15.4591 30.4973H12.5953L12.5979 30.5Z" fill="#FFAD00"/>
<path d="M45.852 20.728C45.852 24.172 44.508 27.42 39.692 27.42C34.876 27.42 33.532 24.172 33.532 20.728V19.804H36.696V20.728C36.696 22.968 37.088 24.564 39.608 24.564C42.1 24.564 42.548 22.968 42.548 20.728V6.98H45.852V20.728ZM56.3721 12.3C59.0881 12.3 61.1881 13.84 61.1881 17.116V27H58.2201V17.956C58.2201 16.024 57.4081 14.792 55.3641 14.792C53.2081 14.792 51.6681 16.164 51.6681 18.292V27H48.7281V6.98H51.6681V14.54H51.7241C52.4801 13.42 53.9641 12.3 56.3721 12.3ZM65.5286 10.284C64.7166 10.284 63.8766 9.724 63.8766 8.716C63.8766 7.708 64.7166 7.176 65.5286 7.176C66.3966 7.176 67.2086 7.708 67.2086 8.716C67.2086 9.724 66.3966 10.284 65.5286 10.284ZM64.0726 12.692H67.0126V27H64.0726V12.692ZM77.7016 12.3C80.3616 12.3 82.4616 13.84 82.4616 17.116V27H79.4936V17.956C79.4936 16.024 78.6816 14.792 76.6656 14.792C74.3976 14.792 72.9416 16.164 72.9416 18.292V27H70.0016V12.692H72.9416V14.54H72.9976C73.7536 13.42 75.2376 12.3 77.7016 12.3ZM84.422 12.692H87.754L91.002 17.732H91.058L94.306 12.692H97.638L92.822 19.692L98.17 27H94.754L91.058 21.624H91.002L87.362 27H83.918L89.266 19.692L84.422 12.692ZM105.392 27V6.98H113.904C117.74 6.98 120.512 8.772 120.512 12.972C120.512 17.172 117.74 18.992 113.904 18.992H108.724V27H105.392ZM108.724 9.808V16.136H113.764C116.004 16.136 117.18 15.184 117.18 12.972C117.18 10.788 116.004 9.808 113.764 9.808H108.724ZM130.443 16.444C130.443 15.408 129.827 14.624 127.867 14.624C125.515 14.624 124.647 15.352 124.507 17.2H121.651C121.791 14.456 123.555 12.3 127.867 12.3C131.031 12.3 133.383 13.504 133.383 17.312V24.116C133.383 25.124 133.607 25.656 134.755 25.544V26.944C134.083 27.196 133.607 27.252 133.047 27.252C131.479 27.252 130.751 26.692 130.471 25.292H130.415C129.519 26.552 127.895 27.42 125.683 27.42C122.771 27.42 120.979 25.74 120.979 23.332C120.979 20.196 123.303 19.216 126.887 18.516C129.099 18.096 130.443 17.816 130.443 16.444ZM126.327 25.096C128.763 25.096 130.443 23.892 130.443 21.568V19.412C129.967 19.748 128.819 20.084 127.447 20.364C125.011 20.896 123.947 21.596 123.947 23.052C123.947 24.368 124.731 25.096 126.327 25.096ZM148.747 12.692L143.035 27.896C142.223 30.108 141.299 31.872 138.555 31.872C137.715 31.872 137.015 31.732 136.455 31.592V29.352H136.707C137.939 29.52 138.863 29.436 139.507 28.652C140.039 28.008 140.431 26.888 139.899 25.544L134.719 12.692H137.883L141.887 23.64H141.943L145.611 12.692H148.747Z" fill="white"/>
</svg>
