<svg width="1018" height="443" viewBox="0 0 1018 443" fill="none" xmlns="http://www.w3.org/2000/svg">
<g opacity="0.5">
<path opacity="0.0344828" d="M436.653 241.308C331.528 329.518 244.658 419.224 189.187 492.933C161.447 529.794 141.594 562.61 131.222 589.208C126.036 602.507 123.241 614.203 122.989 624.042C122.737 633.874 125.022 641.789 129.93 647.637C134.837 653.485 142.235 657.111 151.961 658.57C161.695 660.03 173.698 659.308 187.695 656.51C215.69 650.914 251.455 637.061 292.573 616.143C374.795 574.315 478.223 504.341 583.347 416.131C688.472 327.921 775.342 238.216 830.812 164.506C858.553 127.645 878.406 94.8293 888.778 68.2317C893.964 54.9325 896.76 43.237 897.012 33.3973C897.265 23.566 894.979 15.6506 890.072 9.80238C885.164 3.95422 877.766 0.328698 868.04 -1.13009C858.306 -2.59011 846.303 -1.86807 832.305 0.929747C804.31 6.52523 768.545 20.3787 727.427 41.2965C645.205 83.125 541.778 153.098 436.653 241.308Z" stroke="#2B2C3B" stroke-width="2"/>
<path opacity="0.0689655" d="M429.314 252.001C332.277 349.038 253.556 445.973 204.72 524.237C180.298 563.376 163.38 597.797 155.366 625.197C151.359 638.898 149.594 650.792 150.2 660.617C150.806 670.433 153.773 678.119 159.171 683.517C164.569 688.915 172.255 691.882 182.071 692.488C191.896 693.094 203.79 691.328 217.49 687.321C244.891 679.307 279.312 662.389 318.45 637.967C396.714 589.132 493.65 510.411 590.687 413.374C687.723 316.337 766.444 219.402 815.279 141.138C839.701 102 856.619 67.5785 864.633 40.1781C868.64 26.4775 870.406 14.5829 869.8 4.75855C869.195 -5.05731 866.228 -12.7434 860.83 -18.1416C855.431 -23.5399 847.745 -26.5068 837.929 -27.1124C828.105 -27.7184 816.21 -25.9529 802.509 -21.9458C775.109 -13.9317 740.688 2.98614 701.549 27.4081C623.286 76.2434 526.35 154.964 429.314 252.001Z" stroke="#2B2C3B" stroke-width="2"/>
<path opacity="0.103448" d="M422.588 263.31C334.378 368.435 264.405 471.863 222.577 554.084C201.659 595.203 187.805 630.967 182.21 658.962C179.412 672.96 178.691 684.963 180.151 694.697C181.609 704.423 185.235 711.821 191.083 716.728C196.931 721.635 204.847 723.921 214.678 723.669C224.518 723.416 236.213 720.621 249.512 715.435C276.109 705.063 308.925 685.21 345.786 657.47C419.496 601.999 509.202 515.129 597.412 410.004C685.622 304.879 755.595 201.452 797.423 119.23C818.341 78.1118 832.194 42.3471 837.79 14.3525C840.588 0.354782 841.31 -11.6486 839.85 -21.3827C838.392 -31.1084 834.766 -38.5066 828.918 -43.4139C823.07 -48.3211 815.154 -50.6068 805.323 -50.3546C795.483 -50.1021 783.787 -47.3066 770.488 -42.1206C743.89 -31.7489 711.074 -11.8954 674.213 15.8447C600.504 71.3153 510.799 158.185 422.588 263.31Z" stroke="#2B2C3B" stroke-width="2"/>
<path opacity="0.137931" d="M416.528 275.177C337.816 387.59 277.123 496.723 242.62 582.277C225.366 625.062 214.682 661.898 211.548 690.274C209.98 704.462 210.308 716.482 212.611 726.052C214.912 735.614 219.168 742.668 225.422 747.047C231.675 751.426 239.76 753.013 249.532 751.905C259.312 750.795 270.719 746.991 283.515 740.666C309.108 728.016 340.068 705.378 374.372 674.531C442.966 612.847 524.759 518.489 603.472 406.076C682.184 293.663 742.876 184.531 777.379 98.9763C794.634 56.1915 805.317 19.3554 808.452 -9.02035C810.019 -23.2086 809.693 -35.2293 807.39 -44.7991C805.089 -54.3607 800.832 -61.4148 794.579 -65.7936C788.325 -70.1724 780.241 -71.7596 770.469 -70.6515C760.688 -69.5424 749.281 -65.7381 736.484 -59.4127C710.891 -46.7624 679.931 -24.1244 645.628 6.72287C577.033 68.4066 495.24 162.764 416.528 275.177Z" stroke="#2B2C3B" stroke-width="2"/>
<path opacity="0.172414" d="M411.18 287.541C342.564 406.386 291.614 520.394 264.699 608.63C251.239 652.756 243.806 690.383 243.157 718.924C242.832 733.195 244.206 745.141 247.334 754.474C250.46 763.798 255.315 770.454 261.927 774.272C268.538 778.089 276.73 778.965 286.368 777.01C296.015 775.052 307.047 770.268 319.243 762.852C343.636 748.019 372.505 722.769 403.989 689.049C466.947 621.622 540.205 520.494 608.82 401.649C677.436 282.804 728.385 168.797 755.3 80.5609C768.76 36.4351 776.193 -1.19193 776.842 -29.7329C777.167 -44.0037 775.794 -55.9502 772.666 -65.2829C769.541 -74.6076 764.685 -81.2638 758.074 -85.081C751.463 -88.8981 743.271 -89.7747 733.632 -87.8191C723.986 -85.8617 712.953 -81.0777 700.756 -73.6611C676.364 -58.8283 647.494 -33.5781 616.01 0.141488C553.053 67.5689 479.795 168.696 411.18 287.541Z" stroke="#2B2C3B" stroke-width="2"/>
<path opacity="0.206897" d="M406.583 300.34C348.587 424.714 307.767 542.728 288.644 632.974C279.082 678.105 274.957 716.237 276.797 744.726C277.718 758.971 280.128 770.751 284.057 779.776C287.984 788.793 293.4 795.001 300.319 798.227C307.238 801.453 315.476 801.613 324.907 798.824C334.346 796.034 344.919 790.307 356.422 781.855C379.429 764.953 405.989 737.283 434.414 700.948C491.255 628.29 555.421 521.162 613.417 396.789C671.413 272.415 712.232 154.402 731.355 64.1557C740.918 19.0247 745.043 -19.107 743.202 -47.5959C742.281 -61.8407 739.873 -73.6221 735.943 -82.6467C732.017 -91.6635 726.6 -97.8712 719.681 -101.098C712.762 -104.324 704.525 -104.483 695.094 -101.695C685.655 -98.9044 675.081 -93.1771 663.577 -84.7256C640.57 -67.8234 614.011 -40.153 585.585 -3.81776C528.745 68.8401 464.579 175.967 406.583 300.34Z" stroke="#2B2C3B" stroke-width="2"/>
<path opacity="0.241379" d="M402.773 313.508C355.838 442.463 325.459 563.585 314.275 655.155C308.681 700.948 307.896 739.294 312.212 767.514C314.371 781.624 317.798 793.15 322.5 801.798C327.197 810.438 333.134 816.15 340.308 818.761C347.482 821.372 355.701 820.813 364.854 817.214C374.013 813.611 384.047 806.984 394.771 797.562C416.217 778.719 440.263 748.839 465.414 710.165C515.706 632.829 570.29 520.517 617.226 391.562C664.162 262.608 694.54 141.486 705.725 49.9162C711.318 4.12341 712.103 -34.2226 707.787 -62.4427C705.628 -76.5531 702.202 -88.0798 697.501 -96.7275C692.804 -105.368 686.866 -111.08 679.693 -113.691C672.519 -116.302 664.299 -115.743 655.147 -112.143C645.987 -108.54 635.952 -101.913 625.229 -92.4914C603.782 -73.6482 579.736 -43.7684 554.586 -5.09397C504.294 72.2414 449.709 184.553 402.773 313.508Z" stroke="#2B2C3B" stroke-width="2"/>
<path opacity="0.275862" d="M399.78 326.968C364.262 459.523 344.555 582.833 341.394 675.028C339.814 721.134 342.373 759.403 349.133 787.14C352.513 801.008 356.932 812.192 362.369 820.397C367.801 828.595 374.214 833.768 381.588 835.743C388.962 837.719 397.102 836.446 405.905 832.062C414.716 827.675 424.134 820.199 433.996 809.878C453.718 789.238 475.069 757.376 496.753 716.657C540.113 635.232 584.702 518.59 620.22 386.035C655.737 253.48 675.444 130.172 678.605 37.9758C680.186 -8.13017 677.626 -46.3988 670.866 -74.1352C667.486 -88.0038 663.069 -99.188 657.632 -107.393C652.199 -115.591 645.787 -120.764 638.413 -122.74C631.039 -124.716 622.899 -123.442 614.095 -119.059C605.284 -114.671 595.865 -107.195 586.004 -96.8741C566.281 -76.2336 544.93 -44.3716 523.246 -3.65236C479.886 77.772 435.298 194.414 399.78 326.968Z" stroke="#2B2C3B" stroke-width="2"/>
<path opacity="0.310345" d="M397.626 340.656C373.796 475.802 364.911 600.36 369.798 692.481C372.241 738.549 378.126 776.449 387.278 803.491C391.854 817.012 397.23 827.768 403.362 835.468C409.488 843.161 416.327 847.755 423.845 849.081C431.363 850.406 439.361 848.428 447.749 843.294C456.144 838.156 464.875 829.887 473.799 818.747C491.648 796.466 510.14 762.864 528.193 720.41C564.292 635.516 598.544 515.432 622.374 380.286C646.204 245.14 655.088 120.583 650.202 28.4622C647.758 -17.6061 641.873 -55.506 632.722 -82.5477C628.146 -96.069 622.77 -106.826 616.639 -114.526C610.513 -122.219 603.674 -126.813 596.155 -128.139C588.637 -129.465 580.639 -127.486 572.251 -122.352C563.856 -117.214 555.125 -108.945 546.2 -97.8038C528.352 -75.5229 509.859 -41.9213 491.807 0.53286C455.708 85.4265 421.455 205.51 397.626 340.656Z" stroke="#2B2C3B" stroke-width="2"/>
<path opacity="0.344828" d="M396.326 354.495C384.366 491.204 386.371 616.062 399.268 707.406C405.717 753.086 414.883 790.329 426.357 816.47C432.094 829.541 438.387 839.787 445.167 846.923C451.94 854.054 459.153 858.034 466.758 858.7C474.364 859.365 482.159 856.697 490.067 850.852C497.983 845.001 505.959 836.003 513.879 824.127C529.717 800.375 545.211 765.29 559.495 721.424C588.057 633.707 611.713 511.094 623.674 374.385C635.634 237.677 633.629 112.819 620.732 21.4754C614.283 -24.2046 605.117 -61.4474 593.643 -87.5887C587.907 -100.66 581.614 -110.907 574.835 -118.043C568.061 -125.173 560.848 -129.154 553.243 -129.819C545.637 -130.485 537.843 -127.817 529.934 -121.971C522.018 -116.121 514.041 -107.122 506.121 -95.2458C490.283 -71.4941 474.789 -36.4087 460.505 7.45736C431.943 95.1742 408.287 217.787 396.326 354.495Z" stroke="#2B2C3B" stroke-width="2"/>
<path opacity="0.37931" d="M395.892 368.411C395.892 505.641 408.772 629.85 429.581 719.722C439.987 764.666 452.364 800.969 466.072 826.01C472.926 838.532 480.089 848.19 487.464 854.708C494.834 861.221 502.366 864.558 510 864.558C517.635 864.558 525.168 861.221 532.537 854.708C539.912 848.19 547.074 838.531 553.928 826.01C567.636 800.969 580.013 764.666 590.419 719.722C611.228 629.85 624.108 505.641 624.108 368.411C624.108 231.18 611.228 106.972 590.419 17.1001C580.013 -27.844 567.636 -64.1462 553.928 -89.188C547.074 -101.709 539.912 -111.369 532.537 -117.887C525.168 -124.4 517.635 -127.737 510 -127.737C502.366 -127.737 494.833 -124.4 487.464 -117.887C480.089 -111.369 472.926 -101.709 466.072 -89.188C452.364 -64.1462 439.987 -27.8439 429.581 17.1001C408.772 106.972 395.892 231.18 395.892 368.411Z" stroke="#2B2C3B" stroke-width="2"/>
<path opacity="0.413793" d="M396.326 382.326C408.287 519.035 431.943 641.648 460.506 729.365C474.789 773.231 490.283 808.316 506.121 832.068C514.041 843.944 522.018 852.942 529.934 858.793C537.843 864.638 545.637 867.306 553.243 866.641C560.848 865.975 568.061 861.994 574.835 854.864C581.614 847.728 587.907 837.482 593.644 824.411C605.117 798.27 614.283 761.027 620.732 715.347C633.629 624.003 635.634 499.145 623.674 362.436C611.713 225.727 588.057 103.115 559.495 15.3983C545.211 -28.4677 529.717 -63.5531 513.879 -87.3049C505.959 -99.181 497.983 -108.18 490.067 -114.03C482.159 -119.876 474.364 -122.544 466.759 -121.878C459.153 -121.213 451.94 -117.232 445.167 -110.102C438.387 -102.966 432.094 -92.7188 426.357 -79.6477C414.883 -53.5064 405.717 -16.2636 399.268 29.4164C386.371 120.76 384.366 245.618 396.326 382.326Z" stroke="#2B2C3B" stroke-width="2"/>
<path opacity="0.448276" d="M397.626 396.165C421.456 531.311 455.708 651.396 491.807 736.29C509.86 778.744 528.352 812.345 546.201 834.626C555.125 845.767 563.856 854.035 572.252 859.174C580.64 864.308 588.637 866.286 596.156 864.96C603.674 863.635 610.513 859.04 616.639 851.347C622.77 843.647 628.147 832.891 632.722 819.37C641.874 792.328 647.759 754.428 650.202 708.36C655.089 616.24 646.204 491.682 622.375 356.536C598.545 221.39 564.292 101.306 528.193 16.4125C510.141 -26.0418 491.648 -59.6432 473.8 -81.9242C464.875 -93.065 456.145 -101.334 447.75 -106.473C439.362 -111.607 431.364 -113.585 423.846 -112.259C416.327 -110.934 409.488 -106.339 403.362 -98.6461C397.231 -90.9461 391.854 -80.1895 387.278 -66.6681C378.127 -39.6263 372.242 -1.72635 369.798 44.3419C364.912 136.462 373.796 261.019 397.626 396.165Z" stroke="#2B2C3B" stroke-width="2"/>
<path opacity="0.482759" d="M399.78 409.851C435.298 542.406 479.886 659.049 523.247 740.473C544.931 781.192 566.282 813.054 586.004 833.695C595.866 844.015 605.284 851.491 614.095 855.878C622.899 860.262 631.039 861.536 638.413 859.56C645.787 857.584 652.2 852.411 657.632 844.213C663.069 836.008 667.487 824.824 670.867 810.956C677.627 783.219 680.186 744.951 678.605 698.845C675.444 606.649 655.738 483.34 620.22 350.785C584.702 218.23 540.114 101.588 496.753 20.164C475.069 -20.5553 453.719 -52.4172 433.996 -73.0578C424.135 -83.3783 414.717 -90.8552 405.906 -95.2425C397.102 -99.626 388.962 -100.9 381.588 -98.9237C374.214 -96.9478 367.802 -91.775 362.369 -83.577C356.932 -75.3718 352.513 -64.1876 349.133 -50.3188C342.374 -22.5824 339.814 15.6863 341.395 61.7922C344.556 153.988 364.262 277.297 399.78 409.851Z" stroke="#2B2C3B" stroke-width="2"/>
<path opacity="0.517241" d="M402.774 423.315C449.709 552.27 504.294 664.582 554.586 741.918C579.737 780.592 603.783 810.472 625.229 829.315C635.953 838.737 645.987 845.363 655.147 848.966C664.299 852.566 672.519 853.125 679.693 850.514C686.867 847.903 692.804 842.191 697.501 833.551C702.202 824.903 705.629 813.377 707.787 799.267C712.104 771.047 711.318 732.701 705.725 686.908C694.541 595.338 664.162 474.216 617.226 345.261C570.291 216.306 515.706 103.994 465.414 26.659C440.264 -12.0154 416.217 -41.8952 394.771 -60.7384C384.048 -70.1602 374.014 -76.7877 364.854 -80.3905C355.702 -83.99 347.482 -84.5492 340.308 -81.9382C333.134 -79.3272 327.197 -73.6151 322.5 -64.9748C317.799 -56.327 314.372 -44.8003 312.213 -30.6897C307.896 -2.46962 308.682 35.8765 314.275 81.6692C325.46 173.239 355.838 294.361 402.774 423.315Z" stroke="#2B2C3B" stroke-width="2"/>
<path opacity="0.551724" d="M406.583 436.48C464.579 560.854 528.745 667.982 585.586 740.639C614.011 776.975 640.57 804.645 663.577 821.547C675.081 829.999 685.655 835.725 695.094 838.516C704.525 841.304 712.762 841.145 719.681 837.919C726.6 834.692 732.017 828.484 735.943 819.468C739.873 810.443 742.282 798.662 743.202 784.418C745.043 755.929 740.918 717.797 731.355 672.666C712.233 582.42 671.413 464.406 613.417 340.032C555.42 215.659 491.255 108.532 434.414 35.8742C405.989 -0.461132 379.43 -28.1314 356.423 -45.0337C344.919 -53.485 334.346 -59.2129 324.906 -62.0035C315.475 -64.7917 307.238 -64.6324 300.319 -61.4061C293.4 -58.1798 287.983 -51.972 284.057 -42.9552C280.127 -33.9306 277.718 -22.1489 276.798 -7.90395C274.957 20.585 279.082 58.7167 288.645 103.848C307.767 194.094 348.587 312.107 406.583 436.48Z" stroke="#2B2C3B" stroke-width="2"/>
<path opacity="0.586207" d="M411.18 449.28C479.795 568.125 553.053 669.253 616.01 736.681C647.495 770.4 676.364 795.65 700.757 810.483C712.954 817.9 723.986 822.683 733.632 824.64C743.271 826.596 751.463 825.719 758.074 821.902C764.685 818.085 769.541 811.429 772.666 802.104C775.794 792.772 777.167 780.826 776.843 766.555C776.194 738.014 768.761 700.387 755.301 656.261C728.386 568.025 677.436 454.018 608.82 335.172C540.205 216.327 466.947 115.2 403.99 47.7726C372.506 14.053 343.636 -11.1972 319.244 -26.03C307.047 -33.4465 296.015 -38.2311 286.368 -40.1884C276.73 -42.1441 268.538 -41.2674 261.927 -37.4504C255.315 -33.6333 250.46 -26.977 247.335 -17.6523C244.206 -8.31954 242.833 3.62723 243.158 17.8982C243.807 46.4392 251.239 84.0663 264.699 128.192C291.615 216.428 342.564 330.435 411.18 449.28Z" stroke="#2B2C3B" stroke-width="2"/>
<path opacity="0.62069" d="M416.528 461.644C495.24 574.057 577.034 668.415 645.628 730.099C679.931 760.946 710.892 783.584 736.484 796.235C749.281 802.56 760.688 806.363 770.468 807.472C780.241 808.581 788.325 806.993 794.578 802.615C800.832 798.236 805.089 791.182 807.39 781.62C809.692 772.05 810.019 760.03 808.452 745.842C805.318 717.466 794.634 680.63 777.379 637.846C742.876 552.291 682.184 443.158 603.471 330.745C524.759 218.332 442.966 123.975 374.372 62.2912C340.069 31.444 309.108 8.80598 283.516 -3.84436C270.719 -10.1697 259.312 -13.9745 249.532 -15.0837C239.76 -16.1918 231.675 -14.6045 225.421 -10.2258C219.168 -5.84698 214.911 1.20709 212.61 10.7687C210.308 20.3386 209.981 32.3596 211.548 46.548C214.682 74.9238 225.366 111.76 242.62 154.545C277.124 240.099 337.816 349.232 416.528 461.644Z" stroke="#2B2C3B" stroke-width="2"/>
<path opacity="0.655172" d="M422.588 473.512C510.798 578.637 600.504 665.507 674.214 720.978C711.075 748.718 743.891 768.572 770.488 778.943C783.788 784.129 795.483 786.924 805.323 787.176C815.154 787.429 823.069 785.143 828.918 780.236C834.766 775.328 838.391 767.93 839.85 758.204C841.31 748.47 840.588 736.468 837.79 722.47C832.195 694.476 818.341 658.711 797.423 617.593C755.595 535.371 685.622 431.943 597.412 326.818C509.201 221.693 419.496 134.824 345.787 79.3529C308.926 51.6127 276.11 31.7592 249.512 21.3876C236.213 16.2016 224.517 13.4055 214.678 13.153C204.846 12.9007 196.931 15.1866 191.083 20.0937C185.235 25.0009 181.609 32.3991 180.15 42.1248C178.69 51.859 179.412 63.8628 182.21 77.8606C187.806 105.855 201.659 141.62 222.577 182.738C264.405 264.96 334.378 368.387 422.588 473.512Z" stroke="#2B2C3B" stroke-width="2"/>
<path opacity="0.689655" d="M429.313 484.82C526.35 581.857 623.286 660.579 701.549 709.414C740.688 733.836 775.109 750.754 802.51 758.768C816.21 762.775 828.105 764.54 837.929 763.934C847.745 763.328 855.431 760.361 860.829 754.963C866.227 749.565 869.195 741.879 869.8 732.063C870.406 722.239 868.641 710.344 864.634 696.644C856.62 669.243 839.702 634.822 815.28 595.684C766.444 517.42 687.723 420.484 590.686 323.448C493.65 226.411 396.714 147.69 318.451 98.8548C279.312 74.4328 244.891 57.515 217.491 49.5009C203.79 45.4938 191.895 43.7276 182.071 44.3337C172.255 44.9392 164.569 47.9063 159.171 53.3044C153.773 58.7026 150.806 66.3886 150.2 76.2046C149.594 86.0289 151.36 97.9241 155.367 111.625C163.381 139.025 180.299 173.447 204.721 212.585C253.556 290.848 332.277 387.784 429.313 484.82Z" stroke="#2B2C3B" stroke-width="2"/>
<path opacity="0.724138" d="M436.653 495.515C541.778 583.725 645.206 653.698 727.428 695.527C768.546 716.445 804.311 730.298 832.305 735.894C846.303 738.691 858.306 739.413 868.04 737.953C877.766 736.494 885.164 732.868 890.071 727.02C894.978 721.172 897.264 713.257 897.012 703.425C896.76 693.586 893.964 681.891 888.778 668.592C878.407 641.994 858.553 609.178 830.813 572.317C775.342 498.608 688.472 408.902 583.347 320.691C478.222 232.481 374.795 162.509 292.573 120.68C251.455 99.7624 215.69 85.9089 187.696 80.3135C173.698 77.5157 161.695 76.7929 151.961 78.2529C142.235 79.7116 134.837 83.3373 129.929 89.1853C125.022 95.0335 122.736 102.949 122.989 112.78C123.241 122.62 126.037 134.316 131.223 147.615C141.594 174.213 161.448 207.029 189.188 243.89C244.659 317.599 331.528 407.305 436.653 495.515Z" stroke="#2B2C3B" stroke-width="2"/>
<path opacity="0.758621" d="M444.55 505.545C556.963 584.257 666.096 644.949 751.651 679.453C794.436 696.707 831.272 707.391 859.647 710.525C873.836 712.092 885.856 711.765 895.426 709.462C904.988 707.161 912.042 702.905 916.42 696.651C920.799 690.397 922.386 682.313 921.278 672.541C920.169 662.761 916.365 651.354 910.04 638.557C897.389 612.965 874.751 582.004 843.904 547.701C782.22 479.107 687.862 397.314 575.449 318.601C463.037 239.889 353.904 179.197 268.35 144.694C225.565 127.439 188.729 116.755 160.353 113.621C146.165 112.054 134.144 112.38 124.574 114.683C115.013 116.984 107.959 121.24 103.58 127.494C99.2011 133.748 97.6139 141.832 98.7221 151.604C99.8312 161.384 103.635 172.792 109.961 185.589C122.611 211.181 145.249 242.142 176.096 276.445C237.78 345.039 332.137 426.832 444.55 505.545Z" stroke="#2B2C3B" stroke-width="2"/>
<path opacity="0.793103" d="M452.946 514.862C571.791 583.478 685.799 634.428 774.035 661.343C818.161 674.803 855.788 682.235 884.329 682.885C898.6 683.209 910.546 681.835 919.878 678.707C929.203 675.582 935.859 670.727 939.676 664.115C943.493 657.504 944.37 649.312 942.414 639.674C940.457 630.027 935.673 618.995 928.257 606.799C913.424 582.406 888.174 553.536 854.454 522.052C787.027 459.095 685.899 385.837 567.054 317.222C448.209 248.606 334.202 197.657 245.966 170.741C201.84 157.281 164.213 149.849 135.672 149.2C121.401 148.875 109.455 150.248 100.122 153.376C90.7972 156.501 84.141 161.356 80.3238 167.968C76.5067 174.579 75.6301 182.771 77.5857 192.409C79.5431 202.056 84.3271 213.089 91.7437 225.286C106.576 249.678 131.827 278.548 165.546 310.032C232.974 372.989 334.101 446.247 452.946 514.862Z" stroke="#2B2C3B" stroke-width="2"/>
<path opacity="0.827586" d="M461.776 523.428C586.149 581.425 704.163 622.244 794.41 641.367C839.541 650.93 877.672 655.055 906.161 653.214C920.406 652.294 932.187 649.884 941.211 645.954C950.228 642.028 956.436 636.611 959.662 629.692C962.889 622.773 963.048 614.536 960.26 605.105C957.469 595.666 951.742 585.093 943.291 573.589C926.389 550.582 898.718 524.023 862.383 495.598C789.725 438.757 682.597 374.591 558.224 316.595C433.851 258.599 315.837 217.779 225.591 198.657C180.46 189.094 142.328 184.969 113.84 186.81C99.5947 187.73 87.8133 190.139 78.7887 194.068C69.7719 197.994 63.5642 203.411 60.3378 210.33C57.1114 217.249 56.9522 225.486 59.7404 234.917C62.531 244.357 68.2584 254.931 76.7098 266.435C93.612 289.442 121.282 316.001 157.618 344.426C230.276 401.267 337.403 465.432 461.776 523.428Z" stroke="#2B2C3B" stroke-width="2"/>
<path opacity="0.862069" d="M470.972 531.207C599.927 578.143 721.05 608.521 812.619 619.706C858.412 625.299 896.758 626.085 924.978 621.768C939.089 619.609 950.614 616.182 959.262 611.481C967.903 606.783 973.615 600.846 976.226 593.672C978.837 586.499 978.277 578.279 974.678 569.127C971.075 559.967 964.448 549.933 955.027 539.21C936.184 517.763 906.304 493.717 867.629 468.567C790.294 418.274 677.981 363.69 549.027 316.754C420.072 269.818 298.95 239.44 207.381 228.256C161.588 222.662 123.242 221.877 95.0217 226.193C80.9113 228.352 69.3846 231.778 60.7369 236.479C52.0966 241.176 46.3846 247.114 43.7734 254.288C41.1624 261.461 41.7217 269.681 45.3212 278.833C48.9239 287.993 55.5511 298.028 64.973 308.752C83.8161 330.198 113.696 354.244 152.37 379.395C229.706 429.687 342.018 484.271 470.972 531.207Z" stroke="#2B2C3B" stroke-width="2"/>
<path opacity="0.896552" d="M480.466 538.169C613.021 573.687 736.331 593.394 828.527 596.555C874.632 598.135 912.901 595.576 940.638 588.816C954.506 585.436 965.69 581.017 973.895 575.58C982.093 570.148 987.266 563.736 989.242 556.361C991.217 548.987 989.944 540.847 985.56 532.044C981.173 523.233 973.697 513.815 963.376 503.954C942.736 484.231 910.874 462.88 870.155 441.196C788.73 397.836 672.088 353.248 539.533 317.73C406.978 282.212 283.67 262.505 191.474 259.344C145.368 257.764 107.099 260.323 79.3628 267.083C65.4942 270.463 54.3101 274.881 46.1049 280.318C37.9069 285.75 32.7341 292.162 30.7582 299.537C28.7823 306.911 30.0559 315.05 34.4394 323.854C38.8267 332.665 46.3032 342.084 56.6239 351.946C77.2645 371.668 109.126 393.019 149.846 414.703C231.27 458.063 347.912 502.651 480.466 538.169Z" stroke="#2B2C3B" stroke-width="2"/>
<path opacity="0.931035" d="M490.185 544.294C625.331 568.124 749.889 577.008 842.009 572.122C888.078 569.678 925.978 563.793 953.019 554.642C966.541 550.066 977.296 544.689 984.996 538.557C992.69 532.431 997.284 525.592 998.61 518.074C999.935 510.556 997.957 502.558 992.823 494.17C987.685 485.775 979.416 477.044 968.275 468.12C945.995 450.271 912.393 431.779 869.939 413.726C785.045 377.627 664.96 343.375 529.814 319.545C394.669 295.715 270.111 286.831 177.991 291.717C131.923 294.161 94.0228 300.046 66.9811 309.197C53.4598 313.773 42.7033 319.149 35.0033 325.28C27.3099 331.406 22.7157 338.246 21.3899 345.764C20.0643 353.282 22.0424 361.28 27.1765 369.668C32.3151 378.063 40.5841 386.794 51.725 395.719C74.0059 413.567 107.607 432.06 150.062 450.113C234.955 486.211 355.039 520.464 490.185 544.294Z" stroke="#2B2C3B" stroke-width="2"/>
<path opacity="0.965517" d="M500.054 549.561C636.763 561.521 761.621 559.516 852.965 546.619C898.645 540.17 935.888 531.004 962.029 519.531C975.1 513.794 985.346 507.5 992.483 500.721C999.613 493.947 1003.59 486.734 1004.26 479.129C1004.92 471.524 1002.26 463.729 996.411 455.82C990.56 447.905 981.562 439.928 969.686 432.009C945.935 416.17 910.849 400.676 866.983 386.393C779.266 357.83 656.653 334.174 519.945 322.213C383.236 310.253 258.379 312.258 167.035 325.155C121.355 331.604 84.1121 340.77 57.9708 352.244C44.8998 357.981 34.6527 364.273 27.5164 371.053C20.3862 377.826 16.4056 385.039 15.7401 392.645C15.0747 400.25 17.7424 408.045 23.5881 415.953C29.4388 423.869 38.4373 431.846 50.3136 439.766C74.0654 455.604 109.151 471.098 153.017 485.382C240.734 513.944 363.346 537.6 500.054 549.561Z" stroke="#2B2C3B" stroke-width="2"/>
<path d="M510 553.965C647.231 553.965 771.439 541.085 861.312 520.277C906.256 509.87 942.558 497.494 967.6 483.785C980.121 476.931 989.78 469.768 996.298 462.393C1002.81 455.024 1006.15 447.491 1006.15 439.857C1006.15 432.223 1002.81 424.69 996.298 417.321C989.78 409.945 980.121 402.783 967.6 395.929C942.558 382.221 906.256 369.844 861.312 359.438C771.439 338.629 647.231 325.749 510 325.749C372.769 325.749 248.562 338.629 158.689 359.438C113.745 369.844 77.4432 382.221 52.4014 395.929C39.8801 402.783 30.2205 409.945 23.7021 417.321C17.1895 424.69 13.8526 432.223 13.8525 439.857C13.8525 447.491 17.1895 455.024 23.7021 462.393C30.2205 469.768 39.88 476.931 52.4014 483.785C77.4432 497.494 113.745 509.87 158.689 520.277C248.562 541.085 372.769 553.965 510 553.965Z" stroke="#2B2C3B" stroke-width="2"/>
</g>
</svg>
